<?xml version="1.0" encoding="utf-8"?>
<svg width="65px" height="65px" viewBox="0 0 65 65" version="1.1" xmlns:xlink="http://www.w3.org/1999/xlink" xmlns="http://www.w3.org/2000/svg">
  <defs>
    <linearGradient x1="0.4556601" y1="0.5869529" x2="0.63526404" y2="0.3226614" id="gradient_1">
      <stop offset="0" stop-color="#F0B421" stop-opacity="0" />
      <stop offset="0.512" stop-color="#E9AB12" stop-opacity="0.5137255" />
      <stop offset="1" stop-color="#E09F00" />
    </linearGradient>
    <linearGradient x1="0.5442002" y1="0.58707047" x2="0.36459625" y2="0.3227787" id="gradient_2">
      <stop offset="0" stop-color="#F0B421" stop-opacity="0" />
      <stop offset="0.512" stop-color="#E9AB12" stop-opacity="0.5137255" />
      <stop offset="1" stop-color="#E09F00" />
    </linearGradient>
    <linearGradient x1="5.6147575E-05" y1="0.49999416" x2="1.0000023" y2="0.49999416" id="gradient_3">
      <stop offset="0" stop-color="#FFCF54" />
      <stop offset="0.261" stop-color="#FDCB4D" />
      <stop offset="0.639" stop-color="#F7C13A" />
      <stop offset="1" stop-color="#F0B421" />
    </linearGradient>
    <linearGradient x1="0.24374998" y1="-0.11156273" x2="0.71931255" y2="1.0233746" id="gradient_4">
      <stop offset="0" stop-color="#EBA84B" />
      <stop offset="1" stop-color="#D97218" />
    </linearGradient>
    <linearGradient x1="-1.00284815E-05" y1="0.49999416" x2="1.0000001" y2="0.49999416" id="gradient_5">
      <stop offset="0" stop-color="#FFCF54" />
      <stop offset="0.261" stop-color="#FDCB4D" />
      <stop offset="0.639" stop-color="#F7C13A" />
      <stop offset="1" stop-color="#F0B421" />
    </linearGradient>
    <path d="M0 0L65 0L65 65L0 65L0 0Z" id="path_1" />
    <rect width="65" height="65" id="artboard_1" />
    <clipPath id="clip_1">
      <use xlink:href="#artboard_1" clip-rule="evenodd" />
    </clipPath>
    <clipPath id="mask_1">
      <use xlink:href="#path_1" />
    </clipPath>
  </defs>
  <g id="Iconos" clip-path="url(#clip_1)">
    <g id="Handle-With-Care-icon" transform="translate(-3.6209822E-06 0)">
      <path d="M0 0L65 0L65 65L0 65L0 0Z" id="Background" fill="none" fill-rule="evenodd" stroke="none" />
      <g clip-path="url(#mask_1)">
        <path d="M10.1414 24.8449C10.1414 23.5092 11.2242 22.4264 12.5599 22.4264C13.8956 22.4264 14.9784 23.5092 14.9784 24.8449C14.9784 26.1806 13.8956 27.2634 12.5599 27.2634C11.2242 27.2634 10.1414 26.1806 10.1414 24.8449Z" id="Circle" fill="#C98E00" fill-rule="evenodd" stroke="none" />
        <path d="M14.4286 38.2051L14.9784 24.849L10.1644 24.6025L8.37823 40.4896L14.4286 38.2051Z" id="Polygon" fill="#C98E00" fill-rule="evenodd" stroke="none" />
        <path d="M8.79125 37.677L17.2968 46.2475L20.4344 44.9475C14.6521 38.6845 13.9222 37.9546 13.4049 36.855L11.9614 35.8935C11.134 37.5632 8.79125 37.677 8.79125 37.677L8.79125 37.677Z" id="Shape" fill="url(#gradient_1)" fill-rule="evenodd" stroke="none" />
        <path d="M50.0216 24.8449C50.0216 23.5092 51.1044 22.4264 52.4401 22.4264C53.7758 22.4264 54.8586 23.5092 54.8586 24.8449C54.8586 26.1806 53.7758 27.2634 52.4401 27.2634C51.1044 27.2634 50.0216 26.1806 50.0216 24.8449Z" id="Circle" fill="#C98E00" fill-rule="evenodd" stroke="none" />
        <path d="M56.6218 40.4896L54.8356 24.6025L50.0216 24.849L50.5714 38.2051L56.6218 40.4896Z" id="Polygon" fill="#C98E00" fill-rule="evenodd" stroke="none" />
        <path d="M53.0386 35.8935L51.5951 36.855C51.0765 37.9546 50.3466 38.6858 44.5656 44.9475L47.7032 46.2475L56.2087 37.677C56.2087 37.677 53.866 37.5632 53.0386 35.8935L53.0386 35.8935Z" id="Shape" fill="url(#gradient_2)" fill-rule="evenodd" stroke="none" />
        <path d="M47.3159 56.875L47.32 51.3392L58.3673 40.193L58.3673 40.1917C58.6002 39.9669 58.7925 39.6947 58.9239 39.3778C59.085 38.9892 59.1256 38.5843 59.0823 38.1929L59.0877 38.178L57.3043 22.2909L57.3016 22.2909C57.2135 21.4365 56.6827 20.6524 55.8323 20.3003C54.5986 19.7884 53.1835 20.3748 52.673 21.6084C52.5471 21.9118 52.4889 22.2273 52.4902 22.536L52.4889 22.536L52.4889 22.5482C52.4889 22.5509 52.4889 22.5523 52.4889 22.555L53.0373 35.8935L51.5883 36.8645C52.0989 35.6308 51.5139 34.2157 50.2802 33.7052C49.4488 33.3612 48.5415 33.5237 47.8779 34.037L47.8657 34.0275L36.6776 43.6854L36.6681 43.7071C36.1793 44.1648 35.7717 44.7214 35.4981 45.3808C35.2327 46.0227 35.1217 46.6876 35.1366 47.3403L35.1284 47.3606L35.1284 56.875L47.3159 56.875L47.3159 56.875Z" id="Shape" fill="url(#gradient_3)" fill-rule="evenodd" stroke="none" />
        <path d="M42.7267 29.7917L22.2733 29.7917C21.9402 29.7917 21.6667 29.5181 21.6667 29.185L21.6667 8.73167C21.6667 8.39719 21.9389 8.125 22.2733 8.125L42.7267 8.125C43.0611 8.125 43.3333 8.39719 43.3333 8.73167L43.3333 29.185C43.3333 29.5181 43.0598 29.7917 42.7267 29.7917L42.7267 29.7917Z" id="Shape" fill="url(#gradient_4)" fill-rule="evenodd" stroke="none" />
        <path d="M29.7917 8.125L35.2083 8.125L35.2083 10.8333L29.7917 10.8333L29.7917 8.125Z" id="Rectangle" fill="#FABB62" fill-rule="evenodd" stroke="none" />
        <path d="M17.6841 56.875L29.8702 56.875L29.8702 47.3606L29.8621 47.3403C29.877 46.6876 29.7659 46.0227 29.5005 45.3808C29.2283 44.7227 28.8194 44.1648 28.3305 43.7071L28.321 43.6854L17.1329 34.0275L17.1207 34.037C16.4572 33.5238 15.5499 33.3613 14.7184 33.7052C13.4848 34.2171 12.8984 35.6308 13.4103 36.8645L11.9614 35.8935L12.5098 22.555C12.5098 22.5523 12.5098 22.5509 12.5098 22.5482L12.5098 22.536L12.5084 22.536C12.5098 22.2273 12.4516 21.9118 12.3256 21.6084C11.8137 20.3748 10.4 19.7884 9.16635 20.3003C8.31593 20.6524 7.7851 21.4365 7.69708 22.2909L7.69437 22.2909L5.91229 38.178L5.91771 38.1929C5.87438 38.5843 5.91635 38.9892 6.07615 39.3778C6.2075 39.6947 6.39979 39.9669 6.63271 40.1917L6.63271 40.193L17.68 51.3392L17.6841 56.875L17.6841 56.875Z" id="Shape" fill="url(#gradient_5)" fill-rule="evenodd" stroke="none" />
        <path d="M14.1944 35.9396C14.1944 35.1386 14.8437 34.4893 15.6447 34.4893C16.4457 34.4893 17.095 35.1386 17.095 35.9396C17.095 36.7406 16.4457 37.3899 15.6447 37.3899C14.8437 37.3899 14.1944 36.7406 14.1944 35.9396Z" id="Circle" fill="#FFDE87" fill-rule="evenodd" stroke="none" />
        <path d="M47.905 35.9396C47.905 35.1386 48.5543 34.4893 49.3553 34.4893C50.1563 34.4893 50.8056 35.1386 50.8056 35.9396C50.8056 36.7406 50.1563 37.3899 49.3553 37.3899C48.5543 37.3899 47.905 36.7406 47.905 35.9396Z" id="Circle" fill="#FFDE87" fill-rule="evenodd" stroke="none" />
      </g>
    </g>
  </g>
</svg>