<svg xmlns="http://www.w3.org/2000/svg" version="1.1" viewBox="0 0 3000 3000" width="3000" height="3000">
<defs/><!--ITEM: Illustration component 1--><g transform="translate(281.25 378.75) rotate(0.0 933.75 466.875)  scale(3.497236855164768 3.4950442424877606)"><svg width="533.993" height="267.164" viewBox="0.0 0.0 533.993 267.164"><path d="m87.943 267.164c-.973 0-1.953-.314-2.777-.961-84.499-66.378-88.756-130.08-83.773-162.144 6.107-39.301 32.574-73.11 67.428-86.13 57.136-21.35 115.679-1.147 177.657 20.244 90.477 31.224 184.033 63.513 279.76-36.779 1.715-1.797 4.562-1.865 6.362-.148 1.798 1.716 1.863 4.564.147 6.362-44.625 46.754-93.016 69.826-147.939 70.533-48.292.641-95.565-15.687-141.267-31.46-60.405-20.847-117.463-40.538-171.57-20.32-31.856 11.899-56.069 42.941-61.685 79.081-4.681 30.12-.454 90.137 80.44 153.684 1.954 1.535 2.294 4.364.759 6.318-.888 1.131-2.208 1.72-3.542 1.72z" fill="#142664"/></svg></g><!--ITEM: Illustration component 2--><g transform="translate(322.5 1151.25) rotate(0.0 1280.625 609.375)  scale(3.4949266423596708 3.4844226651151753)"><svg width="732.848" height="349.771" viewBox="0.0 0.0 732.848 349.771"><path d="m367.792 154.802c141.858 9.792 264.483-186.673 254.691-44.816-9.793 141.857-132.772 248.956-274.717 239.164s-248.957-132.771-239.164-274.717 117.244 70.488 259.19 80.369z" fill="#00e6b3"/><path d="m367.792 189.825c202.376-2.999 365.848-47.815 365.054-100.13-.265-17.468-18.791-33.524-50.903-47.198-.176-.088-.265-.088-.441-.176-64.136-26.995-181.91-44.022-316.445-42.081-133.565 2.029-250.104 22.232-313.71 50.727-.441.176-.882.441-1.412.617-31.935 14.557-50.197 31.318-49.932 48.874.706 52.314 165.412 92.278 367.789 89.367z" fill="#142664"/><path d="m168.326 140.245c55.402 10.145 124.478 15.615 199.465 14.468 86.367-1.323 164.795-11.027 223.196-26.025 64.049-16.408 103.924-39.081 103.483-63.518-.088-7.94-4.499-15.615-12.527-22.761-.088-.088-.176-.176-.353-.353 0 0 0 .088-.088.176-23.466-9.881-54.255-18.438-90.337-25.231-62.372-11.732-140.888-18.084-226.108-16.849-74.281 1.147-143.269 7.852-200.877 18.526-45.963 8.557-84.691 19.497-112.921 32.2-.353.265-.706.617-.97.97-7.763 7.322-11.91 15.086-11.733 23.025.44 27.438 51.255 51.081 129.77 65.372z" fill="#00e6b3"/><g fill="#142664"><path d="m163.02 211.811s4.664 1.041 11.002 2.324c3.349.484 7.186 1.252 11.044 1.717 2.183.224 4.536.441 6.74.362 8.605.295 15.705.341 15.705.341 1.505.248 2.837-1.916 3.174-4.347.357-2.733-.684-4.812-2.02-5.066 0 0-6.996-1.562-15.348-3.074-2.162-.527-4.345-.75-6.698-.968-3.858-.465-7.736-.628-11.106-.809-6.401-.374-11.318-.196-11.318-.196-1.505-.248-2.838 1.916-3.174 4.347-.377 3.036.643 5.418 1.999 5.369z"/><path d="m224.278 253.137s1.162.369 3.127.953c1.967.577 4.744 1.357 7.987 2.13 3.428.629 7.391 1.478 11.414 1.86 2.273.177 4.733.3 7.014.082 4.475-.125 8.541-.486 11.475-.859 2.935-.366 4.744-.678 4.744-.678 1.589-.037 2.513-2.411 2.359-4.859-.195-2.749-1.578-4.603-2.877-4.611 0 0-1.727-.073-4.463-.246-2.736-.165-6.482-.497-10.529-.968-2.104-.379-4.202-.501-6.472-.646-3.72-.356-7.463-.56-10.727-.854-3.097-.286-5.847-.514-7.825-.66-1.978-.155-3.183-.215-3.183-.215-1.441-.382-2.965 1.649-3.549 4.033-.688 2.982.118 5.452 1.505 5.538z"/><path d="m372.991 313.52s2.615.442 6.157.911c1.855.055 3.999.331 6.128.303 1.202-.055 2.495-.137 3.682-.495 4.687-.798 8.537-1.653 8.537-1.653.836.055 1.375-2.26 1.352-4.713-.038-2.756-.778-4.686-1.523-4.768 0 0-3.922-.662-8.575-1.104-1.216-.248-2.418-.193-3.711-.111-2.129.027-4.244.358-6.085.606-3.5.441-6.148 1.24-6.148 1.24-.836-.056-1.375 2.26-1.352 4.713.053 3.059.807 5.291 1.538 5.071z"/><path d="m469.676 220.116s2.651.109 6.228.127c1.849-.179 4.012-.176 6.122-.471 1.186-.206 2.459-.451 3.593-.955 4.552-1.383 8.267-2.716 8.267-2.716.837-.051 1.08-2.415.748-4.846-.385-2.729-1.362-4.55-2.112-4.538 0 0-3.977-.163-8.652-.015-1.239-.093-2.425.113-3.698.358-2.11.296-4.168.89-5.965 1.368-3.418.878-5.947 2.005-5.947 2.005-.837.05-1.081 2.416-.748 4.846.437 3.028 1.467 5.148 2.164 4.837z"/><path d="m353.274 278.902s8.587 1.115 20.34 2.034c6.175.271 13.314.675 20.451.565 2.013-.04 4.106-.116 6.194-.255 2.087-.116 4.171-.32 6.164-.589 7.865-.754 15.005-1.825 20.158-2.761 2.578-.453 4.66-.884 6.098-1.194 1.438-.305 2.234-.474 2.234-.474 2.794-.416 4.325-3.023 3.958-5.449-.449-2.719-3.021-4.243-5.378-3.929 0 0-.784.075-2.192.21-1.407.139-3.437.336-5.943.51-5.005.381-11.894.735-19.396.854-3.918-.068-7.798.111-11.99.23-6.893.107-13.785.32-19.797.355-11.421.014-20.167.134-20.167.134-2.715-.26-4.804 1.906-5.086 4.345-.274 3.049 1.899 5.451 4.352 5.414z"/><path d="m479.388 252.394s.446.015 1.257.007c.813-.005 1.998-.012 3.483-.02 2.961-.065 7.12-.193 11.877-.559 4.972-.551 10.716-1.119 16.362-2.172 3.181-.625 6.593-1.38 9.667-2.399 6.115-1.707 11.619-3.542 15.583-4.994 1.983-.717 3.582-1.342 4.685-1.796 1.102-.444 1.713-.69 1.713-.69 2.193-.69 2.916-3.392 2.126-5.713-.916-2.599-3.264-3.834-5.06-3.304 0 0-.608.149-1.701.416-1.086.278-2.664.66-4.622 1.091-3.906.88-9.314 1.978-15.227 3.009-3.112.405-6.146 1.061-9.425 1.735-5.41 1.012-10.786 2.133-15.486 2.96-4.467.766-8.397 1.439-11.211 1.921-2.814.458-4.511.734-4.511.734-2.129.027-3.555 2.402-3.56 4.858.051 3.06 2.051 5.217 4.05 4.916z"/><path d="m252.955 224.546s4.066.496 10.888 1.327c6.829.786 16.426 1.862 27.512 2.831 11.646.848 25.094 1.825 38.533 2.151 7.589.131 15.767.168 23.308-.22 14.844-.445 28.351-1.311 38.127-2.207 4.891-.396 8.846-.861 11.585-1.118 2.739-.264 4.252-.467 4.252-.467 5.259-.388 8.742-3.006 8.688-5.463-.132-2.755-4.64-4.312-9.244-4.007 0 0-.379.022-1.098.063-.719.048-1.78.094-3.144.149-2.729.096-6.659.326-11.498.456-9.672.354-22.958.523-37.38.351-7.52-.218-14.99-.265-23.037-.375-13.232-.317-26.431-.67-37.919-1.198-10.914-.495-20.526-1.033-27.413-1.392-6.889-.376-11.044-.603-11.044-.603-5.177-.588-9.073 1.341-9.513 3.762-.408 3.033 3.776 5.708 8.397 5.96z"/></g></svg></g><!--ITEM: Illustration component 3--><g transform="translate(765.0 1923.75) rotate(0.0 886.875 300.0)  scale(3.5455357731816575 3.540679456387681)"><svg width="500.277" height="169.459" viewBox="0.0 0.0 500.277 169.459"><path d="m416.475 169.459c-32.227.003-68.646-14.237-108.304-29.74-42.658-16.675-91.008-35.575-141.59-38.937-57.711-3.836-109.821 13.18-159.303 52.02-1.954 1.535-4.784 1.194-6.318-.761s-1.193-4.784.762-6.318c51.307-40.273 105.431-57.907 165.456-53.921 51.968 3.455 101.005 22.623 144.27 39.535 32.143 12.565 62.503 24.433 89.245 27.987 28.861 3.836 50.685-2.439 68.695-19.747 12.183-11.717 19.358-25.596 21.326-41.25 4.288-34.172-17.516-71.3-41.27-90.314-1.939-1.553-2.254-4.385-.7-6.325 1.554-1.94 4.386-2.253 6.325-.701 24.916 19.945 49.493 59.264 44.574 98.462-2.23 17.75-10.312 33.434-24.019 46.617-17.605 16.918-37.427 23.391-59.149 23.393z" fill="#142664"/></svg></g><!--ITEM: Illustration component 4--><g transform="translate(288.75 1912.5) rotate(-33.55439845150983 343.125 528.75)  scale(2.8510949450969476 2.856355695289647)"><svg width="240.697" height="370.227" viewBox="0.0 0.0 240.697 370.227"><path d="m204.547 300.761c-.433 0-.798-.334-.829-.773-.868-12.054-4.254-20.643-4.288-20.729-.036-.082-4.332-10.143-9.472-21.41-5.122-11.222-17.493-30.576-17.617-30.771-.248-.387-.135-.902.252-1.15.386-.249.901-.135 1.15.252.125.195 12.56 19.648 17.73 30.977 5.15 11.286 9.454 21.365 9.497 21.465.15.375 3.522 8.917 4.41 21.245.033.459-.312.857-.771.89-.021.004-.042.004-.062.004z" fill="#142664"/><path d="m193.749 251.306c-.265 0-.526-.126-.687-.362-.105-.152-10.571-15.35-20.888-26.065-.319-.331-.309-.858.022-1.177.331-.318.859-.309 1.177.022 10.415 10.815 20.957 26.124 21.062 26.278.26.379.164.897-.215 1.157-.144.1-.308.147-.471.147z" fill="#142664"/><path clip-rule="evenodd" d="m201.294 280.246-.748.331c-1.638.725-3.553-.016-4.277-1.653l-5.547-12.539c-.725-1.638.016-3.553 1.653-4.277l.748-.331c1.638-.725 3.553.016 4.277 1.653l5.547 12.539c.725 1.638-.015 3.553-1.653 4.277z" fill="#00e6b3" fill-rule="evenodd"/><path d="m198.534 282.127c-1.035 0-2.023-.598-2.468-1.604l-6.664-15.065c-.291-.658-.308-1.39-.049-2.061.26-.672.765-1.202 1.423-1.493l3.274-1.448c.659-.29 1.39-.309 2.061-.049.672.26 1.202.765 1.493 1.423l6.664 15.065c.291.657.309 1.39.049 2.061-.26.672-.765 1.202-1.423 1.493h-.001l-3.274 1.448c-.352.156-.721.23-1.085.23zm-3.394-20.236c-.141 0-.283.03-.416.089l-3.274 1.448c-.251.111-.444.313-.544.57-.099.257-.092.537.019.788l6.664 15.064c.229.518.837.754 1.358.525l3.274-1.448c.251-.111.445-.314.544-.57s.093-.536-.018-.787l-6.665-15.065c-.111-.251-.313-.444-.57-.543-.121-.048-.247-.071-.372-.071zm7.417 17.797h.005z" fill="#142664"/><circle clip-rule="evenodd" cx="193.749" cy="250.474" fill="#142664" fill-rule="evenodd" r="2.26"/><circle clip-rule="evenodd" cx="204.548" cy="300.435" fill="#142664" fill-rule="evenodd" r="2.26"/><path d="m215.535 72.388c-.292.182-.667.197-.96.015-4.984-3.099-6.341-10.604-6.598-14.666-.253-3.998-.705-11.754 2.315-12.919 2.211-.853 3.957 2.045 4.834 5.919.207.915 1.471 1.005 1.777.119 2.293-6.651 6.597-21.259 12.964-20.97 4.529.206 9.916 10.069 10.774 15.541.882 5.624-8.963 21.452-15.6 25.459-.101.061-9.506 1.502-9.506 1.502z" fill="#142664"/><path d="m24.247 204.882c.322-.122.693-.065.945.17 4.295 3.999 4.183 11.626 3.655 15.661-.52 3.972-.895 11.515-4.756 12.232-2.33.433-3.49-2.768-3.605-6.738-.027-.937-1.062-1.126-1.721-.458-4.722 4.79-1.046 12.801-4.868 15.79-4.371 3.419-14.553-12.478-13.862-18.507.699-6.097 5.544-11.217 7.329-13.11 2.854-3.026 6.932-4.883 10.859-5.666z" fill="#142664"/><path d="m99.72 306.83s-10.494 10.193-14.024 19.336c-2.628 6.796.089 13.668 2.899 18.206.847 1.315 2.253 2.134 3.89 2.221 1.572.04 3.083-.665 3.986-1.91 4.564-6.292 12.17-16.779 16.258-22.416 1.521-2.097 1.101-5.103-1.062-6.672-4.672-3.489-11.947-8.765-11.947-8.765z" fill="#142664"/><path d="m116.677 334.882s13.311 6.069 19.711 13.491c4.761 5.515 4.514 12.901 3.395 18.12-.355 1.523-1.404 2.768-2.916 3.401-1.467.566-3.127.411-4.396-.458-6.415-4.39-17.105-11.707-22.852-15.64-2.138-1.463-2.753-4.435-1.244-6.64 3.226-4.858 8.302-12.274 8.302-12.274z" fill="#142664"/><path d="m178.493 299.757c-5.944 23.132-25.191 43.573-33.455 49.75-2.192 1.637-7.026 2.137-8.43 1.027l-19.608-15.024c-1.493-1.182-1.149-7.154 1.005-10.445 4.523-6.91 18.426-17.749 22.056-38.439 2.081-11.899-.622-23.426-3.197-32.512-.511-1.798-2.115-3.064-3.985-3.147l-12.509-1.626-4.19-.544c-1.443-.067-2.886.189-4.207.755-.227.094-.455.194-.672.311-9.468 4.917-24.714 14.807-25.102 26.779-.438 13.42 9.807 20.468 13.709 25.935 1.565 2.192 2.281 5.561 1.132 7.021l-15.701 18.554c-1.066 1.36-7.287 1.266-11.794-1.293-8.858-5.028-28.521-32.107-26.734-58.519 1.399-20.696 17.654-33.094 29.587-41.047 29.598-19.736 49.356-15.151 49.356-15.151l39.233 1.82c2.603 7.198 5.361 3.335 8.392 12.149 6.052 17.625 11.308 49.532 5.114 73.646z" fill="#142664"/><g fill="#00e6b3"><path d="m124.253 247.072s-1.66.871-3.885 2.27l-4.19-.544c-1.443-.067-2.886.189-4.207.755.194-.139.389-.277.583-.411.932-.627 1.965-1.271 2.98-1.759 3.868-2.137 7.343-3.341 7.343-3.341.721-.339 1.537.194 1.881.982.378.888.072 1.765-.505 2.048z"/><path d="m100.604 248.544c-.839.451-1.672.916-2.489 1.406-.682.4-1.559.197-1.994-.491-.43-.681-.216-1.592.504-2.014.855-.513 1.726-.999 2.604-1.471.735-.396 1.624-.113 1.984.609.363.727.087 1.586-.609 1.961z"/><path d="m93.35 253.094c-.765.563-1.519 1.141-2.25 1.743-.61.496-1.509.421-2.041-.185-.536-.611-.457-1.541.195-2.07.774-.637 1.569-1.247 2.374-1.839.675-.494 1.594-.339 2.051.326.461.668.307 1.559-.329 2.025z"/><path d="m86.949 258.683c-.647.682-1.264 1.389-1.853 2.115-.483.603-1.381.712-2.029.24-.661-.482-.771-1.407-.238-2.072.639-.789 1.306-1.552 2.001-2.284.575-.622 1.522-.619 2.082-.044.571.583.564 1.473.037 2.045z"/><path d="m81.996 265.422-.621 1.235-.547 1.265c-.26.709-1.079 1.081-1.852.835-.77-.245-1.158-1.099-.856-1.915l.614-1.42.692-1.378c.419-.754 1.323-1.006 2.01-.582.692.428.932 1.294.56 1.96z"/><path d="m79.414 273.256c-.169.913-.197 1.845-.306 2.766-.051.384-.213.724-.469.972-.262.247-.626.402-1.031.397-.405-.006-.77-.175-1.033-.456-.269-.28-.429-.672-.376-1.095.114-1.014.153-2.041.336-3.045.165-.842.932-1.377 1.724-1.204.791.173 1.306.913 1.155 1.665z"/><path d="m79.293 281.582c.087.926.327 1.832.48 2.75.136.758-.267 1.513-1.064 1.733-.764.211-1.627-.259-1.782-1.1-.172-1.004-.427-1.994-.526-3.01-.085-.853.495-1.583 1.303-1.641s1.515.504 1.589 1.268z"/><path d="m81.444 289.675c.353.867.774 1.709 1.155 2.565.351.693.101 1.544-.614 1.938-.704.388-1.613.116-1.996-.639-.415-.923-.865-1.83-1.246-2.767-.297-.797.078-1.651.842-1.92.764-.268 1.591.097 1.859.823z"/><path d="m85.46 297.107c.56.76 1.104 1.532 1.676 2.283.498.604.401 1.506-.219 2.027s-1.544.418-2.078-.232c-.609-.8-1.19-1.622-1.785-2.432-.458-.709-.27-1.625.415-2.055.687-.432 1.569-.248 1.991.409z"/><path d="m90.898 303.634c.689.648 1.333 1.345 2.064 1.948.591.515.65 1.426.132 2.049-.517.623-1.438.679-2.072.127-.774-.642-1.459-1.378-2.189-2.067-.613-.576-.564-1.541.02-2.083.602-.56 1.471-.51 2.045.026z"/></g><path d="m11.081 194.999c6.948-20.546 21.026-36.875 39.201-49.061 7.667-5.14 23.326-14.494 33.444-16.308 0 0 52.151-14.025 68.177-11.883 14.21 1.899 30.09-12.8 37.676-24.397 6.05-9.248 9.643-15.948 11.88-20.818 4.979-10.836 8.74-10.941 13.276-9.288 2.754 1.004 6.227 2.034 9.015 3.386 6.194 3.005 7.764 5.715 7.788 11.702.027 6.791-3.951 25.411-19.666 46.62-7.397 9.983-20.895 22.9-34.19 31.766-1.737 1.159-2.697 3.173-2.462 5.248 1.127 9.957 2.619 26.753 3.121 42.278.466 14.396-5.019 24.289-8.635 25.114-3.222.1-46.318 8.585-83.952-2.068-2.21-.626-6.454-5.339-7.011-19.913-.358-9.358.663-22.502 1.184-30.393.093-1.412-1.145-2.561-2.542-2.342-6.479 1.018-12.003 4.094-19.318 9.935-14.13 11.283-14.913 18.778-21.86 25.778-1.945 1.96-8.084 4.431-13.166 2.554-4.417-1.631-4.607-1.726-8.113-3.725-6.158-3.51-5.245-10.053-3.847-14.185z" fill="#142664"/><path d="m74.137 167.002s.527.877 1.241 2.065c.399.608.818 1.335 1.268 2.034.261.391.538.812.836 1.175.535.746 1.007 1.432 1.338 1.934.322.505.522.819.522.819.123.289.608.314 1.027.14.469-.201.672-.611.554-.9 0 0-.147-.378-.406-.965-.263-.583-.645-1.368-1.095-2.196-.216-.443-.479-.853-.773-1.286-.466-.723-.986-1.403-1.441-1.991-.858-1.121-1.614-1.903-1.614-1.903-.192-.281-.685-.218-1.045.058-.443.352-.612.81-.412 1.016z" fill="#00e6b3"/><circle cx="105.468" cy="70.851" fill="#fff" r="68.618"/><path d="m95.567 138.75c-5.941-.866-11.59-2.468-16.87-4.707-20.568-14.402-32.447-39.604-28.577-66.143 5.469-37.497 40.302-63.469 77.799-58 5.941.866 11.6 2.465 16.88 4.704 20.568 14.402 32.437 39.607 28.567 66.146-5.463 37.5-40.296 63.472-77.799 58z" fill="#00e6b3"/><path d="m105.394 141.693c-3.523 0-7.034-.262-10.498-.786-31.828-4.773-56.449-30.494-59.87-62.548-2.004-18.815 3.438-37.284 15.324-52.006 11.888-14.724 28.795-23.936 47.608-25.941 11.109-1.188 22.019.194 32.422 4.108 25.226 9.493 42.67 32.033 45.524 58.823 2.008 18.815-3.432 37.285-15.318 52.008-11.887 14.723-28.796 23.935-47.612 25.938-2.525.27-5.056.404-7.58.404zm.235-137.252c-2.387 0-4.788.128-7.2.386-17.634 1.879-33.482 10.514-44.623 24.314-11.142 13.801-16.243 31.112-14.364 48.747 3.207 30.045 26.282 54.154 56.116 58.629 5.572.843 11.272.963 16.946.358 17.637-1.877 33.486-10.512 44.628-24.313 11.141-13.8 16.24-31.113 14.358-48.748-2.676-25.112-19.027-46.24-42.673-55.138-7.491-2.818-15.265-4.235-23.188-4.235z" fill="#142664"/><path d="m156.239 116.153s-1.776-.035-4.182-.082c-1.267.022-2.735.019-4.199.106-.827.057-1.718.133-2.535.272-1.613.215-3.079.477-4.135.72-1.057.238-1.708.421-1.708.421-.574.12-.871.627-.776 1.071.113.497.651.741 1.131.648 0 0 .638-.108 1.664-.241 1.025-.138 2.446-.264 3.996-.36.811-.026 1.613-.092 2.481-.156 1.433-.095 2.862-.189 4.105-.271 2.372-.136 4.19-.316 4.19-.316.572-.004.96-.442.965-.896-.01-.568-.501-.969-.997-.916z" fill="#142664"/><path d="m75.784 132.827s1.281-.463 3.062-.958c.923-.295 2.011-.56 3.086-.841.605-.167 1.259-.337 1.854-.528 1.184-.327 2.272-.574 3.062-.724.79-.146 1.278-.204 1.278-.204.417-.006.709-.434.731-.89.018-.508-.382-.864-.808-.863 0 0-.554-.01-1.42.046-.864.059-2.039.191-3.295.416-.661.091-1.302.251-1.986.443-1.13.296-2.228.68-3.173 1.041-1.802.675-3.089 1.392-3.089 1.392-.427.173-.547.691-.372 1.109.229.518.737.749 1.07.561z" fill="#142664"/><path d="m138.189 120.732s.325 1.708.789 4.018c.278 1.204.56 2.602.896 3.981.196.777.412 1.613.662 2.372.874 3.014 1.628 5.484 1.628 5.484.12.544.627.823 1.073.734.499-.107.737-.645.637-1.13 0 0-.488-2.562-1.129-5.591-.143-.796-.34-1.573-.556-2.409-.336-1.379-.724-2.74-1.056-3.926-.624-2.255-1.181-3.948-1.181-3.948-.12-.544-.627-.824-1.073-.735-.552.127-.844.683-.69 1.15z" fill="#142664"/><path d="m89.886 129.847s1.365.244 3.579.283c2.217.05 5.298-.067 8.817-.384 3.691-.364 7.927-.9 12.116-1.638 2.364-.421 4.901-.929 7.22-1.502 4.577-1.067 8.703-2.268 11.647-3.376 1.472-.554 2.65-1.082 3.454-1.503.803-.425 1.237-.721 1.237-.721.758-.473 1.361-1.127 1.546-1.82.031-.188.058-.342.038-.492-.026-.153-.053-.273-.111-.364-.127-.185-.252-.243-.362-.225-.122.025-.231.133-.321.227-.097.099-.217.182-.341.282-.282.206-.77.526-1.338.877 0 0-.363.238-1.104.6-.742.36-1.87.824-3.302 1.312-2.865.98-6.942 2.037-11.418 2.968-2.339.463-4.664.929-7.176 1.384-4.135.73-8.274 1.368-11.884 1.783-3.43.397-6.455.614-8.6.648-1.073.019-1.923-.009-2.501-.043-.577-.037-.882-.078-.882-.078-.766-.115-1.39-.172-1.803-.205-.092-.012-.198-.013-.28-.017-.074-.006-.157-.006-.234-.006-.124-.004-.272-.008-.38.032-.129.058-.202.191-.165.437.022.116.078.228.16.366.083.127.189.235.321.362.518.445 1.296.72 2.067.813z" fill="#142664"/><circle clip-rule="evenodd" cx="115.596" cy="164.053" fill="#fff" fill-rule="evenodd" r="8.787"/><circle clip-rule="evenodd" cx="115.596" cy="164.053" fill="#ff2e93" fill-rule="evenodd" r="5.086"/><path d="m175.61 154.75s-.338-1.718-1.169-4.507c-.414-1.395-.961-3.053-1.641-4.902-.346-.922-.715-1.895-1.135-2.904-.21-.505-.43-1.02-.668-1.547l-.189-.402c-.035-.071-.058-.127-.102-.21l-.142-.254c-.205-.33-.447-.648-.746-.912-1.226-1.145-3.257-1.444-4.831-.508-1.122.654-2.275 1.325-3.447 2.007-2.341 1.371-4.759 2.787-7.174 4.201-2.718 1.613-5.641 3.353-8.312 5.003-10.562 6.418-19.25 11.696-19.25 11.696-1.895 1.105-3.011 2.26-2.848 2.69.209.469 1.97-.154 3.66-1.132 0 0 8.893-5.131 19.459-11.227 2.763-1.575 5.481-3.187 8.404-4.927 2.403-1.432 4.803-2.861 7.122-4.243 1.157-.695 2.294-1.379 3.402-2.045l.207-.125.052-.032.041-.017c.091-.046.188-.073.283-.106.194-.05.393-.071.591-.063.395.018.782.162 1.082.4.141.114.273.24.373.39.059.069.094.154.145.229l.177.356c.234.479.456.97.671 1.451.425.967.815 1.906 1.173 2.803.715 1.793 1.295 3.413 1.743 4.773.45 1.36.772 2.46.98 3.219.201.76.31 1.176.31 1.176.472 2.09 1.031 3.526 1.503 3.566.284-.011.468-.49.54-1.229.056-.734-.027-1.71-.264-2.668z" fill="#00e6b3"/><path d="m81.103 174.718s.149-.089.422-.253c.277-.16.661-.413 1.182-.687 1.021-.57 2.485-1.333 4.214-2.131 1.801-.866 3.926-1.769 6.06-2.611 1.207-.468 2.505-.971 3.706-1.436 2.377-.865 4.587-1.485 6.197-1.821.805-.144 1.461-.28 1.908-.303.45-.046.7-.072.7-.072.431-.023.778-.073 1.057-.234.274-.15.466-.361.509-.586.101-.494-.693-.926-1.577-.937 0 0-.282.01-.789.029-.515-.002-1.226.094-2.106.202-1.745.256-4.088.781-6.555 1.552-.643.198-1.286.397-1.928.629-.637.244-1.284.492-1.955.749-2.199.87-4.321 1.891-6.142 2.827-1.729.895-3.21 1.767-4.245 2.442-.524.322-.927.622-1.208.815-.279.198-.433.305-.433.305-.791.527-1.069 1.274-.814 1.643.343.455 1.186.345 1.797-.122z" fill="#00e6b3"/><path d="m115.602 173.673c-4.055 0-7.835-2.586-9.155-6.646-1.64-5.044 1.13-10.482 6.174-12.122 5.044-1.641 10.483 1.13 12.122 6.174.794 2.443.589 5.05-.577 7.339-1.166 2.29-3.154 3.988-5.598 4.783-.983.32-1.983.472-2.966.472zm-.012-17.574c-.814 0-1.64.125-2.454.39-2.021.657-3.664 2.061-4.629 3.954s-1.134 4.048-.477 6.069 2.061 3.664 3.954 4.629c1.894.965 4.049 1.135 6.069.477 2.021-.657 3.664-2.061 4.629-3.954s1.134-4.049.477-6.069c-1.09-3.358-4.216-5.496-7.569-5.496z" fill="#00e6b3"/><path d="m123.13 156.414s2.754-2.468 6.487-5.815c1.937-1.781 4.169-3.835 6.394-5.882 1.242-1.171 2.576-2.435 3.771-3.639.597-.583 1.182-1.153 1.747-1.703l.214-.21.25-.261c.159-.18.306-.366.439-.559.265-.387.474-.8.627-1.219.308-.841.381-1.707.289-2.49-.02-.196-.06-.388-.097-.572-.035-.152-.07-.302-.104-.448-.068-.293-.134-.575-.196-.843-.502-2.15-.814-3.487-.814-3.487-.228-1.163-.815-1.895-1.268-1.844-.506.073-.656 1.115-.46 2.152 0 0 .251 1.364.652 3.538.051.272.104.556.159.852.028.148.056.299.084.452.021.137.042.245.049.373.042.494-.025 1.031-.233 1.541-.102.255-.238.502-.406.732-.084.115-.176.225-.276.33s-.197.193-.357.338c-.579.526-1.177 1.068-1.787 1.622-1.288 1.138-2.53 2.309-3.864 3.573-2.208 2.064-4.369 4.162-6.255 5.982-3.587 3.454-6.254 6.142-6.254 6.142-.874.801-1.193 1.683-.914 2.044.372.423 1.387.042 2.123-.699z" fill="#00e6b3"/><path d="m46.198 154.149s.107.824.177 2.193c.029.681.048 1.505-.026 2.382-.039.433-.105.889-.229 1.266-.057.193-.139.345-.202.443-.05.063-.048.04-.076.049l-.007.001c-.051.015-.327-.027-.67-.334-.344-.295-.71-.737-1.084-1.226-.383-.493-.76-1.035-1.289-1.608-.137-.144-.283-.289-.456-.435-.144-.123-.458-.358-.75-.479-.591-.279-1.287-.279-1.868-.001-.111.075-.254.137-.369.24-.312.215-.542.543-.716.892-.187.401-.226.631-.284.9-.096.517-.11.977-.11 1.421.007.882.089 1.695.156 2.453.078 1.017.094 1.98-.022 2.455-.048.235-.119.349-.112.361-.01.027-.015.044 0 .046-.035.018-.017.031-.096.052-.069.029-.178.055-.286.076-.219.045-.476.063-.718.076-.495.021-.977.005-1.418-.021-.885-.054-1.616-.143-2.19-.215-1.149-.151-1.674-.242-1.674-.242-1.045-.208-1.867.043-2.007.476-.143.492.68 1.044 1.64 1.24 0 0 .548.126 1.75.336.602.102 1.366.225 2.331.318.484.044 1.016.083 1.625.077.309-.008.628-.017 1-.078.187-.031.379-.067.606-.144.221-.072.522-.223.747-.402-.072.069.052-.015.294-.264.239-.278.451-.679.581-1.143.261-.925.245-1.997.215-3.041-.013-.802-.06-1.576-.056-2.305.002-.361.018-.714.065-1.007.011-.075.028-.135.04-.202.016-.044.039-.137.032-.112l-.001-.004.001-.001.006-.002c-.066-.053.167.115.343.306.375.388.765.905 1.18 1.415.42.514.864 1.048 1.466 1.538.302.242.661.477 1.104.636.223.078.463.133.713.156.125.009.251.007.376.004.133-.008.276-.031.41-.055.009-.003.017-.005.024-.007.531-.124.995-.467 1.287-.883.268-.376.401-.73.495-1.051.187-.648.238-1.214.268-1.741.049-1.051-.021-1.94-.091-2.68-.152-1.474-.324-2.338-.324-2.338-.137-1.101-.706-1.796-1.159-1.746-.559.096-.804 1.043-.642 1.959z" fill="#00e6b3"/><path d="m189.342 105.834s-.151-.04-.398-.154c-.124-.049-.271-.113-.432-.205-.164-.079-.341-.183-.527-.304-.407-.214-.84-.543-1.26-.876-.245-.177-.502-.381-.756-.548-.472-.363-.854-.744-1.072-1.014-.05-.066-.096-.126-.136-.179-.029-.046-.054-.085-.074-.117-.051-.072-.05-.08-.05-.08.002-.017-.026-.027-.077-.04-.053-.017-.103.011-.187-.008-.162-.021-.375-.122-.589-.198-.24-.085-.463-.09-.639.05-.083.06-.165.185-.195.266-.033.086-.045.183-.032.278 0 0 .009.145.062.308.025.087.055.199.097.319.046.106.098.227.155.361.243.51.64 1.106 1.151 1.67.247.315.55.567.89.814.544.43 1.17.744 1.732.974.266.112.522.203.765.263.235.071.453.115.639.139.364.065.593.061.593.061.281.061.525-.332.576-.782.055-.565-.063-1.008-.236-.998z" fill="#00e6b3"/><path d="m196.552 102.46s-1.087-.407-2.568-.935c-.787-.244-1.684-.562-2.593-.825-.515-.142-1.071-.29-1.598-.377-2.045-.451-3.737-.786-3.737-.786-.353-.115-.722.223-.859.655-.15.488.05.919.362 1.027 0 0 1.631.61 3.587 1.274.503.197 1.018.338 1.574.487.909.263 1.83.472 2.629.661 1.518.364 2.694.557 2.694.557.353.115.722-.222.859-.655.162-.544-.025-1.03-.35-1.083z" fill="#00e6b3"/><path d="m60.086 271.264s-.257-.046-.731-.131c-.472-.089-1.159-.221-2.004-.42-.837-.203-1.862-.46-2.874-.877-.121-.055-.253-.105-.367-.166l-.177-.087-.046-.03c-.049-.034-.058-.049-.076-.079-.043-.067.057-.112.105-.109l.28-.08c.167-.046.341-.088.52-.128.357-.081.732-.153 1.117-.22.769-.133 1.578-.246 2.405-.354 1.656-.215 3.389-.406 5.133-.659.986-.149 2.012-.313 3.066-.567.531-.133 1.058-.272 1.645-.532.298-.151.606-.264 1.012-.693.187-.189.443-.623.427-1.1-.009-.465-.221-.821-.368-.999-.16-.207-.309-.332-.426-.424-.125-.102-.253-.206-.375-.279-.249-.171-.492-.297-.734-.425-.48-.229-.951-.423-1.41-.575-.919-.314-1.8-.535-2.641-.721-1.68-.364-3.195-.592-4.47-.761-1.274-.169-2.309-.274-3.024-.343-.716-.065-1.112-.101-1.112-.101-1.367-.16-2.375.191-2.456.64-.073.504 1.019.951 2.212 1.098 0 0 1.574.182 4.051.601 1.237.212 2.7.489 4.268.885.781.201 1.591.433 2.375.727.392.146.775.311 1.128.493.166.095.348.186.482.289.073.05.15.099.199.149.052.046.135.112.127.113.011-.006-.017.021.027-.012.028-.028.058-.055.089-.081.062-.051.131-.096.205-.135.079-.068.227-.11.258-.122.127-.024.052.027-.121-.104-.125-.075-.187-.156-.334-.302-.021-.023-.08-.094-.066-.08 0 0 .005-.002-.001 0l-.02.011c-.03.019-.095.052-.167.084-.309.136-.754.262-1.2.367-.908.212-1.895.378-2.923.536-1.719.242-3.435.484-5.094.718-.838.126-1.665.26-2.478.417-.407.079-.81.163-1.212.261-.201.049-.402.102-.604.158l-.303.09-.164.053c-.086.027-.172.057-.255.09-.64.235-1.23.562-1.522 1.012-.158.219-.244.482-.273.76.019.275.026.548.139.792.204.493.616.913 1.118 1.234.121.075.244.138.365.207l.181.101.123.056c.164.075.325.145.482.204 1.254.474 2.341.695 3.255.879.911.177 1.64.281 2.142.351.502.065.776.1.776.1 1.37.22 2.394-.104 2.486-.551.079-.557-.998-1.09-2.17-1.229z" fill="#00e6b3"/><path d="m170.604 289.197s-.254-.069-.722-.197c-.469-.124-1.153-.301-2.026-.489-.877-.182-1.928-.398-3.204-.486-.322-.017-.657-.03-1.02-.012-.073.005-.216.008-.368.027l-.436.075c-.151.018-.287.063-.423.11-.135.047-.283.083-.396.157-.504.241-.88.635-1.059 1.158-.137.543.011 1.063.381 1.58.197.264.452.532.711.76l.187.167.121.101.242.197c.324.257.652.496.985.732.665.469 1.347.92 2.037 1.373 1.376.905 2.795 1.812 4.101 2.779.727.539 1.477 1.142 1.977 1.739.25.28.369.612.352.557.001.008.011.02.004.032-.007.004-.001.006-.01.018-.017.015-.032.031-.047.05-.047.036-.083.075-.178.131-1.253.843-2.868.959-4.331.722-1.472-.235-2.797-.74-3.878-1.218-1.083-.488-1.936-.964-2.518-1.304-.581-.343-.896-.546-.896-.546-1.066-.726-2.028-.957-2.355-.638-.356.373.327 1.377 1.334 2.066 0 0 .326.232.929.626.605.39 1.492.937 2.647 1.518 1.16.566 2.586 1.194 4.327 1.543.869.167 1.821.268 2.833.171 1.007-.093 2.074-.398 3.028-.971.233-.125.553-.327.85-.655.312-.346.534-.8.584-1.274.061-.472-.069-.995-.215-1.313-.15-.345-.331-.618-.516-.866-.751-.963-1.583-1.599-2.446-2.253-1.419-1.055-2.875-1.949-4.257-2.817-.69-.432-1.364-.854-1.994-1.275-.314-.21-.618-.421-.9-.631-.135-.1-.289-.222-.389-.302l-.05-.036c-.022-.018-.051-.04-.06-.072-.005-.033.021-.057.046-.072.029-.017.054-.027.099-.035.227-.028.517-.03.777-.029 1.078.021 2.101.174 2.941.31.844.139 1.523.281 1.989.378.466.101.721.156.721.156 1.261.338 2.262.201 2.443-.218.19-.534-.788-1.265-1.952-1.524z" fill="#00e6b3"/><path d="m86.733 225.625s.131.033.384.098c.254.056.63.138 1.117.245.975.211 2.394.519 4.173.904 3.576.661 8.606 1.593 14.452 2.208 6.134.656 13.233 1.143 20.314 1.25 1.999.012 4.075.057 6.147.002 2.071-.035 4.14-.063 6.123-.176 7.808-.302 14.904-.884 20.034-1.449 2.568-.255 4.642-.543 6.08-.705 1.438-.166 2.231-.289 2.231-.289 2.751-.34 4.633-1.011 4.668-1.473.002-.514-2.331-.577-4.764-.283 0 0-.2.024-.58.068-.379.049-.94.106-1.661.176-1.442.133-3.519.376-6.079.584-5.116.464-12.156.915-19.806 1.101-1.994.056-3.982.062-6.005.078-2.023.038-4.08.006-6.212-.01-7.014-.102-13.997-.465-20.046-1.047-1.436-.149-2.828-.293-4.166-.433-1.333-.175-2.612-.344-3.824-.503-.606-.082-1.197-.15-1.767-.237-.569-.092-1.12-.182-1.651-.268-1.064-.172-2.05-.331-2.947-.475-1.788-.322-3.213-.62-4.199-.804-.492-.095-.873-.169-1.131-.218s-.39-.085-.39-.085c-2.658-.672-4.648-.725-4.865-.311-.197.533 1.978 1.5 4.37 2.052z" fill="#00e6b3"/><path d="m101.372 232.514c-.044 0-.089-.002-.134-.007l-17.645-1.679c-.761-.073-1.322-.751-1.25-1.513l.634-6.668c.068-.716.661-1.256 1.379-1.256.044 0 .089.002.134.007l17.645 1.679c.761.073 1.322.751 1.25 1.513l-.634 6.668c-.068.715-.661 1.256-1.379 1.256z" fill="#142664"/><path d="m84.357 222.224c.018 0 .037.001.055.002l17.646 1.679c.199.019.32.133.375.199s.144.207.125.406l-.634 6.668c-.027.282-.268.503-.55.503-.018 0-.037-.001-.055-.002l-17.647-1.679c-.305-.029-.529-.301-.5-.605l.634-6.668c.027-.282.269-.503.551-.503m-.001-1.665c-1.131 0-2.098.861-2.208 2.01l-.634 6.668c-.116 1.221.779 2.304 2 2.42l17.646 1.678c.072.007.143.01.213.01 1.131 0 2.098-.861 2.207-2.01l.634-6.668c.116-1.221-.779-2.304-2-2.42l-17.646-1.679c-.07-.005-.141-.009-.212-.009z" fill="#00e6b3"/><path d="m99.933 227.441-14.101-1.341c-2.199-.209-3.812-2.162-3.603-4.361l.18-1.887c.209-2.199 2.162-3.812 4.361-3.603l14.101 1.341c2.199.209 3.812 2.162 3.603 4.361l-.18 1.887c-.21 2.199-2.162 3.812-4.361 3.603z" fill="#00e6b3"/><path d="m110.604 232.827c-.371-.004-.717-.153-.976-.418s-.399-.615-.394-.986l.081-6.697c.009-.756.631-1.371 1.386-1.371l17.742.215c.765.009 1.38.64 1.371 1.405l-.082 6.697c-.009.756-.631 1.371-1.386 1.371z" fill="#142664"/><path d="m110.702 222.521.007 1.665 17.724.216c.2.002.33.106.39.167s.16.194.158.394l-.081 6.698c-.004.302-.252.548-.562.548l-17.724-.216c-.2-.002-.331-.106-.391-.167-.06-.062-.16-.194-.158-.394l.082-6.698c.004-.302.252-.548.554-.548v-1.665m.001 0c-1.213 0-2.204.976-2.219 2.193l-.082 6.698c-.015 1.226.967 2.232 2.193 2.247l17.724.216h.028c1.213 0 2.204-.976 2.219-2.193l.081-6.698c.015-1.226-.967-2.232-2.193-2.247l-17.724-.216c-.009 0-.018 0-.027 0z" fill="#00e6b3"/><path d="m126.605 228.284-14.164-.172c-2.209-.027-3.978-1.839-3.951-4.048l.025-2.079c.027-2.209 1.839-3.978 4.048-3.951l14.164.172c2.209.027 3.978 1.839 3.951 4.048l-.025 2.079c-.026 2.209-1.839 3.978-4.048 3.951z" fill="#00e6b3"/><path d="m126.139 331.489c-.334 0-.669-.12-.935-.363-.566-.517-.606-1.395-.089-1.96.761-.834 1.507-1.666 2.236-2.496.506-.576 1.383-.633 1.958-.127.576.506.633 1.382.127 1.958-.741.844-1.499 1.689-2.272 2.537-.273.298-.648.451-1.025.451zm5.888-6.817c-.307 0-.616-.101-.873-.309-.595-.483-.687-1.357-.204-1.952.72-.888 1.417-1.771 2.07-2.623.466-.609 1.337-.724 1.945-.256.608.466.723 1.337.256 1.945-.668.872-1.38 1.773-2.116 2.681-.273.338-.674.514-1.078.514zm5.403-7.207c-.27 0-.544-.079-.783-.243-.632-.434-.793-1.297-.36-1.929.634-.925 1.25-1.859 1.83-2.778.409-.648 1.267-.841 1.914-.431.648.41.841 1.267.431 1.914-.599.947-1.234 1.911-1.887 2.863-.268.393-.703.604-1.145.604zm4.699-7.68c-.222 0-.447-.053-.655-.165-.675-.363-.928-1.204-.566-1.879.526-.98 1.029-1.973 1.495-2.953.329-.692 1.156-.988 1.849-.657.692.33.986 1.157.657 1.849-.486 1.02-1.009 2.054-1.557 3.074-.25.466-.729.731-1.223.731zm3.721-8.195c-.16 0-.324-.028-.483-.087-.718-.267-1.085-1.065-.818-1.784.382-1.03.738-2.08 1.057-3.122.225-.733 1-1.143 1.733-.92.733.225 1.145 1 .92 1.733-.335 1.093-.708 2.195-1.109 3.275-.207.559-.737.905-1.3.905zm2.458-8.655c-.09 0-.18-.009-.272-.027-.752-.149-1.24-.879-1.091-1.631.212-1.069.393-2.16.539-3.246.101-.759.793-1.296 1.559-1.191.759.101 1.293.8 1.191 1.559-.153 1.143-.344 2.292-.567 3.417-.131.662-.71 1.119-1.359 1.119zm1.011-8.939c-.014 0-.029 0-.043-.001-.766-.024-1.368-.664-1.344-1.43.017-.564.026-1.13.026-1.699.001-.53-.007-1.061-.022-1.596-.022-.766.581-1.404 1.347-1.427.78-.018 1.405.582 1.427 1.347.016.561.024 1.12.023 1.676 0 .597-.009 1.191-.027 1.783-.024.754-.64 1.347-1.387 1.347zm-.421-8.99c-.692 0-1.291-.517-1.376-1.222-.13-1.076-.291-2.177-.48-3.273-.13-.755.377-1.473 1.132-1.603.759-.125 1.473.377 1.603 1.132.197 1.141.365 2.289.5 3.412.092.76-.451 1.451-1.212 1.544-.056.007-.112.01-.167.01zm-1.659-8.849c-.621 0-1.186-.42-1.345-1.05-.264-1.05-.558-2.128-.876-3.205-.217-.735.203-1.506.938-1.723.733-.218 1.507.203 1.723.938.328 1.112.633 2.227.906 3.313.186.743-.264 1.497-1.008 1.684-.112.029-.225.043-.338.043zm-2.649-8.607c-.568 0-1.101-.351-1.305-.916-.371-1.026-.77-2.075-1.185-3.117-.283-.712.063-1.519.776-1.802.711-.285 1.519.064 1.802.776.426 1.069.835 2.146 1.216 3.199.261.721-.112 1.516-.833 1.777-.155.056-.314.083-.471.083z" fill="#00e6b3"/></svg></g><!--ITEM: Illustration component 5--><g transform="translate(581.25 795.0) rotate(0.0 298.125 350.625)  scale(4.648651598668361 4.675)"><svg width="128.263" height="150.0" viewBox="0.0 0.0 128.263 150.0"><path d="m78.021 17.757 14.242 43.243c0 1.105-.895 2-2 2h-28.265c-.53 0-1.039-.211-1.414-.586l-7.998-7.998c-.375-.374-.586-.883-.586-1.414v-47.002c0-3.314-2.686-6-6-6h-26c-3.314 0-13.418 9.793-18.155 17.671l14.155 48.874c0 1.591.632 3.117 1.757 4.243l26.455 26.455c1.126 1.125 2.652 1.757 4.243 1.757h41.808c1.105 0 2 .895 2 2v27c0 3.314 2.686 6 6 6l12.479 14.213c7.369-4.257 17.521-11.174 17.521-14.61v-122.604c0-8.314-2.686-11-6-11h-26c-3.314.001-13.117 9.229-18.242 17.758z" fill="#ff2e93"/><g fill="#142664"><path d="m112.746 17.636s1.488-1.253 3.474-2.981c.998-.953 2.198-2.001 3.323-3.116.626-.639 1.294-1.333 1.844-2.04 2.31-2.638 4.163-4.854 4.163-4.854.456-.422.224-1.275-.339-1.869-.638-.661-1.463-.753-1.878-.385 0 0-2.231 1.879-4.801 4.193-.701.572-1.327 1.211-1.995 1.905-1.125 1.116-2.174 2.299-3.096 3.319-1.76 1.931-2.987 3.508-2.987 3.508-.457.422-.224 1.275.339 1.869.713.727 1.614.886 1.953.451z"/><path d="m40.056 70.782s1.488-1.253 3.474-2.981c.998-.953 2.198-2.001 3.323-3.116.626-.639 1.294-1.333 1.844-2.04 2.31-2.638 4.163-4.854 4.163-4.854.456-.422.224-1.275-.339-1.869-.638-.661-1.463-.753-1.878-.385 0 0-2.231 1.879-4.801 4.193-.701.572-1.327 1.211-1.995 1.905-1.125 1.116-2.174 2.299-3.096 3.319-1.76 1.931-2.987 3.508-2.987 3.508-.457.422-.224 1.275.339 1.869.714.727 1.615.886 1.953.451z"/><path d="m36.768 17.636s1.488-1.253 3.474-2.981c.998-.953 2.198-2.001 3.323-3.116.626-.639 1.294-1.333 1.844-2.04 2.31-2.638 4.163-4.854 4.163-4.854.456-.422.224-1.275-.339-1.869-.638-.661-1.463-.753-1.877-.385 0 0-2.231 1.879-4.801 4.193-.701.572-1.327 1.211-1.995 1.905-1.125 1.116-2.174 2.299-3.096 3.319-1.76 1.931-2.987 3.508-2.987 3.508-.457.422-.224 1.275.339 1.869.713.727 1.614.886 1.952.451z"/><path d="m76.263 22v55c0 1.105-.895 2-2 2h-28.265c-.53 0-1.039-.211-1.414-.586l-7.998-7.998c-.375-.375-.586-.883-.586-1.414v-47.002c0-3.314-2.686-6-6-6h-24c-3.314 0-6 2.686-6 6v60.545c0 1.591.632 3.117 1.757 4.243l26.455 26.455c1.125 1.125 2.651 1.757 4.243 1.757h41.808c1.105 0 2 .895 2 2v27c0 3.314 2.686 6 6 6h24c3.659.029 6-2.702 6-5.396v-117.604c0-8.314-2.686-11-6-11h-24c-3.314 0-6 2.686-6 6z"/></g></svg></g><!--ITEM: Illustration component 6--><g transform="translate(1968.75 798.75) rotate(0.0 298.125 350.625)  scale(4.648651598668361 4.675)"><svg width="128.263" height="150.0" viewBox="0.0 0.0 128.263 150.0"><path d="m78.021 17.757 14.242 43.243c0 1.105-.895 2-2 2h-28.265c-.53 0-1.039-.211-1.414-.586l-7.998-7.998c-.375-.374-.586-.883-.586-1.414v-47.002c0-3.314-2.686-6-6-6h-26c-3.314 0-13.418 9.793-18.155 17.671l14.155 48.874c0 1.591.632 3.117 1.757 4.243l26.455 26.455c1.126 1.125 2.652 1.757 4.243 1.757h41.808c1.105 0 2 .895 2 2v27c0 3.314 2.686 6 6 6l12.479 14.213c7.369-4.257 17.521-11.174 17.521-14.61v-122.604c0-8.314-2.686-11-6-11h-26c-3.314.001-13.117 9.229-18.242 17.758z" fill="#ff2e93"/><g fill="#142664"><path d="m112.746 17.636s1.488-1.253 3.474-2.981c.998-.953 2.198-2.001 3.323-3.116.626-.639 1.294-1.333 1.844-2.04 2.31-2.638 4.163-4.854 4.163-4.854.456-.422.224-1.275-.339-1.869-.638-.661-1.463-.753-1.878-.385 0 0-2.231 1.879-4.801 4.193-.701.572-1.327 1.211-1.995 1.905-1.125 1.116-2.174 2.299-3.096 3.319-1.76 1.931-2.987 3.508-2.987 3.508-.457.422-.224 1.275.339 1.869.713.727 1.614.886 1.953.451z"/><path d="m40.056 70.782s1.488-1.253 3.474-2.981c.998-.953 2.198-2.001 3.323-3.116.626-.639 1.294-1.333 1.844-2.04 2.31-2.638 4.163-4.854 4.163-4.854.456-.422.224-1.275-.339-1.869-.638-.661-1.463-.753-1.878-.385 0 0-2.231 1.879-4.801 4.193-.701.572-1.327 1.211-1.995 1.905-1.125 1.116-2.174 2.299-3.096 3.319-1.76 1.931-2.987 3.508-2.987 3.508-.457.422-.224 1.275.339 1.869.714.727 1.615.886 1.953.451z"/><path d="m36.768 17.636s1.488-1.253 3.474-2.981c.998-.953 2.198-2.001 3.323-3.116.626-.639 1.294-1.333 1.844-2.04 2.31-2.638 4.163-4.854 4.163-4.854.456-.422.224-1.275-.339-1.869-.638-.661-1.463-.753-1.877-.385 0 0-2.231 1.879-4.801 4.193-.701.572-1.327 1.211-1.995 1.905-1.125 1.116-2.174 2.299-3.096 3.319-1.76 1.931-2.987 3.508-2.987 3.508-.457.422-.224 1.275.339 1.869.713.727 1.614.886 1.952.451z"/><path d="m76.263 22v55c0 1.105-.895 2-2 2h-28.265c-.53 0-1.039-.211-1.414-.586l-7.998-7.998c-.375-.375-.586-.883-.586-1.414v-47.002c0-3.314-2.686-6-6-6h-24c-3.314 0-6 2.686-6 6v60.545c0 1.591.632 3.117 1.757 4.243l26.455 26.455c1.125 1.125 2.651 1.757 4.243 1.757h41.808c1.105 0 2 .895 2 2v27c0 3.314 2.686 6 6 6h24c3.659.029 6-2.702 6-5.396v-117.604c0-8.314-2.686-11-6-11h-24c-3.314 0-6 2.686-6 6z"/></g></svg></g><!--ITEM: Illustration component 7--><g transform="translate(1998.75 0.0) rotate(45.82607162439857 226.875 309.375)  scale(3.5378461826347305 3.522369537125063)"><svg width="128.256" height="175.663" viewBox="0.0 0.0 128.256 175.663"><path d="m66.451.001c-8.223-.178-14.012 17.147-15.727 38.543-.597 7.761-1.063 12.879-1.194 15.522l-.124.011c-1.77 22.153-18.82 26.112-32.442 33.262-8.724 4.568-16.011 10.443-16.961 23.185-.044.881.454 1.524 1.234 1.828.079.181.159.361.227.418l11.323 3.212-3.299 13.086c-.063 2.7 10.624 3.778 16.023 3.904s16.073-.298 16.193-3.065l-2.141-10.264 8.348.167-.177 8.912c-.022.441.329.847.826.801l7.41.191c.441.022.847-.329.801-.826l.139-4.586c.825.112 1.649.223 2.531.267l-.157 7.783c-.03 2.383 1.848 4.402 4.3 4.488 1.254.009 2.337-.467 3.082-1.225.801-.826 1.33-1.877 1.407-3.075l.157-7.783c.813-.013 1.683-.093 2.428-.162l-.139 4.586c-.022.441.329.847.826.801l7.41.191c.441.022.847-.329.801-.826l.16-5.716.062-3.389 8.54.212-2.603 10.453c-.063 2.7 10.624 3.778 16.023 3.904 5.399.127 16.073-.298 16.193-3.065l-2.744-13.403 11.584-2.764c.124-.011.169-.204.27-.464.666-.25 1.162-.985 1.217-1.742-.371-12.808-7.396-18.987-15.932-23.897-13.308-7.727-30.157-12.431-30.962-34.659 0 0-.068-.056-.124.012-.061-2.688-.284-7.805-.568-15.609-.999-21.586-5.998-39.04-14.221-39.219z" fill="#142664"/><path d="m66.262 90.67c-.383.599-1.105.917-1.794.918-1.254-.009-2.159-.99-2.15-2.244l.284-12.493c.077-1.197.99-2.159 2.244-2.15s2.159.99 2.15 2.244l-.284 12.493c-.078.508-.168.893-.45 1.232z" fill="#ff2e93"/><path d="m66.849 63.176c-.383.599-1.105.917-1.794.918-1.254-.009-2.159-.99-2.15-2.244l.804-39.355c.077-1.197.99-2.159 2.244-2.15s2.159.99 2.15 2.244l-.804 39.355c-.078.508-.168.893-.45 1.232z" fill="#ff2e93"/><g fill="#142664"><path d="m24.685 174.745c-.383.599-1.105.917-1.794.918-1.254-.009-2.159-.99-2.15-2.244l1.55-73.253c.077-1.197.99-2.159 2.244-2.15s2.159.99 2.15 2.244l-1.55 73.253c-.022.44-.169.892-.45 1.232z"/><path d="m103.777 173.776c-.383.599-1.105.917-1.794.918-1.254-.009-2.159-.99-2.15-2.244l.125-6.088c.077-1.197.99-2.159 2.244-2.15s2.159.99 2.15 2.244l-.125 6.088c-.022.44-.168.893-.45 1.232z"/><path d="m113.04 147.295c-.383.599-1.105.917-1.794.918-1.254-.009-2.159-.99-2.15-2.244l.125-6.088c.077-1.197.99-2.159 2.244-2.15s2.159.99 2.15 2.244l-.125 6.088c-.078.509-.224.961-.45 1.232z"/><path d="m16.031 144.937c-.383.599-1.105.917-1.794.918-1.254-.009-2.159-.99-2.15-2.244l.125-6.088c.077-1.197.99-2.159 2.244-2.15s2.159.99 2.15 2.244l-.125 6.088c-.078.509-.168.893-.45 1.232z"/><path d="m104.113 158.459c-.383.599-1.105.917-1.794.918-1.254-.009-2.159-.99-2.15-2.244l1.282-57.88c.077-1.197.99-2.159 2.244-2.15s2.159.99 2.15 2.244l-1.282 57.88c-.022.44-.236.836-.45 1.232z"/><path d="m95.685 150.656c-.383.599-1.105.917-1.794.918-1.254-.009-2.159-.99-2.15-2.244l.976-44.946c.077-1.197.99-2.159 2.244-2.15s2.159.99 2.15 2.244l-.976 44.946c-.022.441-.236.837-.45 1.232z"/><path d="m33.552 165.195c-.383.599-1.105.917-1.794.918-1.254-.009-2.159-.99-2.15-2.244l.252-11.488c.077-1.197.99-2.159 2.244-2.15s2.159.99 2.15 2.244l-.252 11.488c-.078.508-.224.96-.45 1.232z"/><path d="m34.001 142.976c-.383.599-1.105.917-1.794.918-1.254-.009-2.159-.99-2.15-2.244l.839-38.982c.077-1.197.99-2.159 2.244-2.15s2.159.99 2.15 2.244l-.839 38.982c-.078.508-.168.892-.45 1.232z"/></g></svg></g><!--ITEM: Illustration component 8--><g transform="translate(1263.75 787.5) rotate(0.0 305.625 350.625)  scale(4.648430370505566 4.675)"><svg width="131.496" height="150.0" viewBox="0.0 0.0 131.496 150.0"><path d="m1.938 20.096 14.062 103.904c0 5.523 4.477 10 10 10l86.738 12.888c8.658-5.771 18.758-14.604 18.758-21.888v-115c0-5.523-4.477-10-10-10h-96.496c-6.37 0-17.504 10.229-23.062 20.096zm89.558 83.904h-35.496c-2.209 0-4-1.791-4-4v-66c0-2.209 1.791-4 4-4h35.496c2.209 0 4 1.791 4 4v66c-0 2.209-1.791 4-4 4z" fill="#ff2e93"/><g fill="#142664"><path d="m115.817 18.645s1.452-1.217 3.39-2.897c.972-.927 2.143-1.946 3.238-3.032.609-.623 1.26-1.299 1.794-1.989 2.245-2.573 4.046-4.736 4.046-4.736.445-.41.204-1.255-.359-1.849-.638-.661-1.454-.762-1.858-.405 0 0-2.178 1.825-4.684 4.075-.685.555-1.294 1.178-1.945 1.854-1.095 1.086-2.115 2.24-3.012 3.235-1.711 1.883-2.902 3.423-2.902 3.423-.445.41-.204 1.255.359 1.849.713.728 1.605.897 1.933.472z"/><path d="m39.862 118.475s1.452-1.217 3.39-2.897c.972-.927 2.143-1.946 3.238-3.032.609-.623 1.26-1.299 1.794-1.989 2.245-2.573 4.046-4.736 4.046-4.736.445-.41.204-1.255-.359-1.849-.638-.661-1.454-.762-1.858-.405 0 0-2.178 1.825-4.684 4.075-.685.555-1.294 1.178-1.945 1.854-1.095 1.086-2.115 2.24-3.012 3.235-1.711 1.883-2.902 3.423-2.902 3.423-.445.41-.204 1.255.359 1.849.713.728 1.605.897 1.933.472z"/><path d="m0 26v114c0 5.523 4.477 10 10 10h95.496c5.523 0 10-4.477 10-10v-114c0-5.523-4.477-10-10-10h-95.496c-5.523 0-10 4.477-10 10zm75.496 94h-35.496c-2.209 0-4-1.791-4-4v-66c0-2.209 1.791-4 4-4h35.496c2.209 0 4 1.791 4 4v66c-0 2.209-1.791 4-4 4z"/></g></svg></g><!--ITEM: Illustration component 9--><g transform="translate(318.75 2047.5) rotate(-44.10152781350944 108.75 148.125)  scale(2.6725154821586554 2.6629452849014372)"><svg width="81.384" height="111.249" viewBox="0.0 0.0 81.384 111.249"><path d="m61.374 99.948s-.9-.1-2.6-.1c-1.1 0-2.4 0-3.9.1-1.2.1-2.5.3-3.9.5-.9.1-1.7.3-2.7.5-1.1-.1-2.2.8-2.3 1.9s.8 2.2 1.9 2.3c1 .3 1.9.6 2.9.8 1.6.3 3.1.4 4.4.3 1.7-.1 3.2-.5 4.4-.8 1.9-.6 2.8-1.2 2.8-1.2 1.1-.3 1.8-1.4 1.5-2.6-.3-1.3-1.4-2-2.5-1.7z" fill="#142664"/><path d="m9.519 98.001c-1.6-.5-5.7-7.2-6.6-12.1-3.953-20.441-3.241-40.368-1.649-50.946 2.933-19.471 19.818-34.508 39.505-34.943.657-.015-.658-.015 0-.003 21.991.425 40.659 14.502 40.609 36.496-.022 9.687-.903 31.246-3.964 47.296-2.4 12.3-10.9 15.9-13.1 16.5 0 0 .1 3.9.1 6.2 0 1.6-1.1 3-2.7 3.3-6.7.9-25 2.8-49.3-.1-1.7-.2-2.9-1.6-2.9-3.3-.001-3-.001-8.4-.001-8.4z" fill="#ff2e93"/><path d="m61.374 99.948s-.9-.1-2.6-.1c-1.1 0-2.4 0-3.9.1-1.2.1-2.5.3-3.9.5-.9.1-1.7.3-2.7.5-1.1-.1-2.2.8-2.3 1.9s.8 2.2 1.9 2.3c1 .3 1.9.6 2.9.8 1.6.3 3.1.4 4.4.3 1.7-.1 3.2-.5 4.4-.8 1.9-.6 2.8-1.2 2.8-1.2 1.1-.3 1.8-1.4 1.5-2.6-.3-1.3-1.4-2-2.5-1.7z" fill="#142664"/></svg></g><!--ITEM: Illustration component 10--><g transform="translate(270.0 2058.75) rotate(-44.10152781350944 121.875 105.0)  scale(2.673137029116631 2.678742266726194)"><svg width="91.185" height="78.395" viewBox="0.0 0.0 91.185 78.395"><path d="m10.021 77.784c-1.116 1.006-2.893.738-3.626-.573-11.198-20.037-9.643-60.974 20.534-72.41 44.067-16.574 75.032 12.84 60.726 41.374-.323.645-1.302.443-1.346-.277l-.337-7.965c-.165-3.906-3.913-6.631-7.691-5.625-19.638 5.228-21.107-8.016-34.053-6.308-14.4 1.9-16.1 17.9-13 31.7 1.6 7.5-9.5 7.7-8.1.6 1-5.1-.1-10.8-5-10-6.6 1.1-2.1 10.9-2.4 19.3-.193 4.456-3.434 8.136-5.707 10.184z" fill="#142664"/></svg></g><!--ITEM: Illustration component 11--><g transform="translate(412.5 2130.0) rotate(-44.10152781350944 60.0 58.125)  scale(2.802232445181328 2.774595446083345)"><svg width="42.823" height="41.898" viewBox="0.0 0.0 42.823 41.898"><g fill="#142664"><path d="m34.675 15.986s-.5 1.3-.5 2.7c-.1 1.4.3 2.8.3 2.8-.1 1.6 1.2 3 2.8 3.1s3-1.2 3.1-2.8c0 0 .5-1.3.5-2.7.1-1.4-.3-2.8-.3-2.8.1-1.6-1.2-3-2.8-3.1s-3 1.2-3.1 2.8z"/><path d="m3.975 15.386s-.5 1.3-.5 2.7c-.1 1.4.3 2.8.3 2.8-.1 1.6 1.2 3 2.8 3.1s3-1.2 3.1-2.8c0 0 .5-1.3.5-2.7.1-1.4-.3-2.8-.3-2.8.1-1.6-1.2-3-2.8-3.1s-3 1.2-3.1 2.8z"/><path d="m42.773 4.274s-.118-.345-.399-.874c-.293-.503-.774-1.16-1.431-1.722-.719-.542-1.582-1.085-2.538-1.386-.541-.157-1.145-.269-1.717-.223-1.11-.016-2.137.19-2.857.491-.718.29-1.122.575-1.122.575-.403.193-.234.988.23 1.659.526.753 1.028 1.224 1.161 1.179 0 0 .882-.206 2.093.145.301.125.61.18.945.263.537.17 1.08.334 1.501.537.394.2.682.387.881.518.178.132.297.213.297.213-.001.113.79-.005 1.591-.173.998-.213 1.597-.805 1.365-1.202z"/><path d="m2.989 5.674s.097-.083.26-.221c.19-.133.464-.33.881-.504.397-.236.954-.394 1.492-.552.303-.103.631-.193.93-.338.602-.189 1.172-.268 1.549-.249.381.009.613.053.613.053.13.108.677-.474 1.16-1.135.54-.744.597-1.467.255-1.691 0 0-.419-.293-1.153-.58-.736-.3-1.775-.489-2.876-.452-.581-.027-1.141.099-1.714.293-.958.285-1.827.815-2.522 1.38-.667.535-1.159 1.186-1.444 1.704-.147.252-.228.503-.291.653-.057.156-.088.242-.088.242-.211.463.432.987 1.225 1.176.994.225 1.771.331 1.723.221z"/><ellipse cx="22.245" cy="35.825" rx="6.7" ry="6.073"/></g></svg></g><!--ITEM: Illustration component 12--><g transform="translate(78.75 1147.5) rotate(0.0 39.375 39.375)  scale(7.720588235294118 7.720588235294118)"><svg width="10.2" height="10.2" viewBox="0.0 0.0 10.2 10.2"><path d="m3.4 3.4c.2-1.1.3-2 .3-2 0-.8.6-1.4 1.4-1.4s1.4.6 1.4 1.4c0 0 .2.8.3 2h.1c1.1.1 1.9.3 1.9.3.8 0 1.4.6 1.4 1.4s-.6 1.4-1.4 1.4c0 0-.8.2-1.9.3h-.1v.1c-.1 1.1-.3 1.9-.3 1.9 0 .8-.6 1.4-1.4 1.4s-1.4-.6-1.4-1.4c0 0-.2-.8-.3-1.9v-.1c-1.1-.2-2-.3-2-.3-.8 0-1.4-.6-1.4-1.4s.6-1.4 1.4-1.4c0 .1.8-.1 2-.3z" fill="#ff2e93"/></svg></g><!--ITEM: Illustration component 13--><g transform="translate(528.75 1796.25) rotate(0.0 26.25 26.25)  scale(7.5 7.5)"><svg width="7.0" height="7.0" viewBox="0.0 0.0 7.0 7.0"><path d="m1.9 1.9c.1-.3.2-.5.2-.5 0-.8.6-1.4 1.4-1.4s1.4.6 1.4 1.4c0 0 .1.2.2.5.3.1.5.2.5.2.8 0 1.4.6 1.4 1.4s-.6 1.4-1.4 1.4c0 0-.2.1-.5.2-.1.3-.2.5-.2.5 0 .8-.6 1.4-1.4 1.4s-1.4-.6-1.4-1.4c0 0-.1-.2-.2-.5-.3-.1-.5-.2-.5-.2-.8 0-1.4-.6-1.4-1.4s.6-1.4 1.4-1.4c0 0 .2-.1.5-.2z" fill="#ff2e93"/></svg></g><!--ITEM: Illustration component 14--><g transform="translate(285.0 1271.25) rotate(0.0 26.25 26.25)  scale(7.5 7.5)"><svg width="7.0" height="7.0" viewBox="0.0 0.0 7.0 7.0"><path d="m1.9 1.9c.1-.3.2-.5.2-.5 0-.8.6-1.4 1.4-1.4s1.4.6 1.4 1.4c0 0 .1.2.2.5.3.1.5.2.5.2.8 0 1.4.6 1.4 1.4s-.6 1.4-1.4 1.4c0 0-.2.1-.5.2-.1.3-.2.5-.2.5 0 .8-.6 1.4-1.4 1.4s-1.4-.6-1.4-1.4c0 0-.1-.2-.2-.5-.3-.1-.5-.2-.5-.2-.8 0-1.4-.6-1.4-1.4s.6-1.4 1.4-1.4c0 0 .2-.1.5-.2z" fill="#ff2e93"/></svg></g><!--ITEM: Illustration component 15--><g transform="translate(195.0 1770.0) rotate(0.0 52.5 52.5)  scale(6.907894736842105 6.907894736842105)"><svg width="15.2" height="15.2" viewBox="0.0 0.0 15.2 15.2"><path d="m5.8 5.8c.2-2.5.4-4.4.4-4.4 0-.8.6-1.4 1.4-1.4s1.4.6 1.4 1.4c0 0 .3 2 .4 4.4.5 0 .9.1 1.3.1 1.8.1 3.1.3 3.1.3.8 0 1.4.6 1.4 1.4s-.6 1.4-1.4 1.4c0 0-1.3.2-3.1.3-.4 0-.8.1-1.3.1 0 .5-.1.9-.1 1.3-.1 1.8-.3 3.1-.3 3.1 0 .8-.6 1.4-1.4 1.4s-1.4-.6-1.4-1.4c0 0-.2-1.3-.3-3.1 0-.4-.1-.9-.1-1.3-2.4-.2-4.4-.4-4.4-.4-.8 0-1.4-.6-1.4-1.4s.6-1.4 1.4-1.4c0 0 1.9-.3 4.4-.4z" fill="#ff2e93"/></svg></g><!--ITEM: Illustration component 16--><g transform="translate(1057.5 2422.5) rotate(0.0 52.5 52.5)  scale(6.907894736842105 6.907894736842105)"><svg width="15.2" height="15.2" viewBox="0.0 0.0 15.2 15.2"><path d="m5.8 5.8c.2-2.5.4-4.4.4-4.4 0-.8.6-1.4 1.4-1.4s1.4.6 1.4 1.4c0 0 .3 2 .4 4.4.5 0 .9.1 1.3.1 1.8.1 3.1.3 3.1.3.8 0 1.4.6 1.4 1.4s-.6 1.4-1.4 1.4c0 0-1.3.2-3.1.3-.4 0-.8.1-1.3.1 0 .5-.1.9-.1 1.3-.1 1.8-.3 3.1-.3 3.1 0 .8-.6 1.4-1.4 1.4s-1.4-.6-1.4-1.4c0 0-.2-1.3-.3-3.1 0-.4-.1-.9-.1-1.3-2.4-.2-4.4-.4-4.4-.4-.8 0-1.4-.6-1.4-1.4s.6-1.4 1.4-1.4c0 0 1.9-.3 4.4-.4z" fill="#ff2e93"/></svg></g><!--ITEM: Illustration component 17--><g transform="translate(1331.25 2403.75) rotate(0.0 28.125 28.125)  scale(8.035714285714286 8.035714285714286)"><svg width="7.0" height="7.0" viewBox="0.0 0.0 7.0 7.0"><path d="m1.9 1.9c.1-.3.2-.5.2-.5 0-.8.6-1.4 1.4-1.4s1.4.6 1.4 1.4c0 0 .1.2.2.5.3.1.5.2.5.2.8 0 1.4.6 1.4 1.4s-.6 1.4-1.4 1.4c0 0-.2.1-.5.2-.1.3-.2.5-.2.5 0 .8-.6 1.4-1.4 1.4s-1.4-.6-1.4-1.4c0 0-.1-.2-.2-.5-.3-.1-.5-.2-.5-.2-.8 0-1.4-.6-1.4-1.4s.6-1.4 1.4-1.4c0 0 .2-.1.5-.2z" fill="#ff2e93"/></svg></g><!--ITEM: Illustration component 18--><g transform="translate(2328.75 2133.75) rotate(0.0 30.0 30.0)  scale(8.571428571428571 8.571428571428571)"><svg width="7.0" height="7.0" viewBox="0.0 0.0 7.0 7.0"><path d="m1.9 1.9c.1-.3.2-.5.2-.5 0-.8.6-1.4 1.4-1.4s1.4.6 1.4 1.4c0 0 .1.2.2.5.3.1.5.2.5.2.8 0 1.4.6 1.4 1.4s-.6 1.4-1.4 1.4c0 0-.2.1-.5.2-.1.3-.2.5-.2.5 0 .8-.6 1.4-1.4 1.4s-1.4-.6-1.4-1.4c0 0-.1-.2-.2-.5-.3-.1-.5-.2-.5-.2-.8 0-1.4-.6-1.4-1.4s.6-1.4 1.4-1.4c0 0 .2-.1.5-.2z" fill="#ff2e93"/></svg></g><!--ITEM: Illustration component 19--><g transform="translate(2538.75 1841.25) rotate(0.0 24.375 24.375)  scale(6.964285714285714 6.964285714285714)"><svg width="7.0" height="7.0" viewBox="0.0 0.0 7.0 7.0"><path d="m1.9 1.9c.1-.3.2-.5.2-.5 0-.8.6-1.4 1.4-1.4s1.4.6 1.4 1.4c0 0 .1.2.2.5.3.1.5.2.5.2.8 0 1.4.6 1.4 1.4s-.6 1.4-1.4 1.4c0 0-.2.1-.5.2-.1.3-.2.5-.2.5 0 .8-.6 1.4-1.4 1.4s-1.4-.6-1.4-1.4c0 0-.1-.2-.2-.5-.3-.1-.5-.2-.5-.2-.8 0-1.4-.6-1.4-1.4s.6-1.4 1.4-1.4c0 0 .2-.1.5-.2z" fill="#ff2e93"/></svg></g><!--ITEM: Illustration component 20--><g transform="translate(2501.25 2520.0) rotate(0.0 88.125 88.125)  scale(11.595394736842106 11.595394736842106)"><svg width="15.2" height="15.2" viewBox="0.0 0.0 15.2 15.2"><path d="m5.8 5.8c.2-2.5.4-4.4.4-4.4 0-.8.6-1.4 1.4-1.4s1.4.6 1.4 1.4c0 0 .3 2 .4 4.4.5 0 .9.1 1.3.1 1.8.1 3.1.3 3.1.3.8 0 1.4.6 1.4 1.4s-.6 1.4-1.4 1.4c0 0-1.3.2-3.1.3-.4 0-.8.1-1.3.1 0 .5-.1.9-.1 1.3-.1 1.8-.3 3.1-.3 3.1 0 .8-.6 1.4-1.4 1.4s-1.4-.6-1.4-1.4c0 0-.2-1.3-.3-3.1 0-.4-.1-.9-.1-1.3-2.4-.2-4.4-.4-4.4-.4-.8 0-1.4-.6-1.4-1.4s.6-1.4 1.4-1.4c0 0 1.9-.3 4.4-.4z" fill="#ff2e93"/></svg></g><!--ITEM: Illustration component 21--><g transform="translate(2692.5 1931.25) rotate(0.0 54.375 54.375)  scale(7.154605263157895 7.154605263157895)"><svg width="15.2" height="15.2" viewBox="0.0 0.0 15.2 15.2"><path d="m5.8 5.8c.2-2.5.4-4.4.4-4.4 0-.8.6-1.4 1.4-1.4s1.4.6 1.4 1.4c0 0 .3 2 .4 4.4.5 0 .9.1 1.3.1 1.8.1 3.1.3 3.1.3.8 0 1.4.6 1.4 1.4s-.6 1.4-1.4 1.4c0 0-1.3.2-3.1.3-.4 0-.8.1-1.3.1 0 .5-.1.9-.1 1.3-.1 1.8-.3 3.1-.3 3.1 0 .8-.6 1.4-1.4 1.4s-1.4-.6-1.4-1.4c0 0-.2-1.3-.3-3.1 0-.4-.1-.9-.1-1.3-2.4-.2-4.4-.4-4.4-.4-.8 0-1.4-.6-1.4-1.4s.6-1.4 1.4-1.4c0 0 1.9-.3 4.4-.4z" fill="#ff2e93"/></svg></g><!--ITEM: Illustration component 22--><g transform="translate(1878.75 2520.0) rotate(0.0 39.375 39.375)  scale(7.720588235294118 7.720588235294118)"><svg width="10.2" height="10.2" viewBox="0.0 0.0 10.2 10.2"><path d="m3.4 3.4c.2-1.1.3-2 .3-2 0-.8.6-1.4 1.4-1.4s1.4.6 1.4 1.4c0 0 .2.8.3 2h.1c1.1.1 1.9.3 1.9.3.8 0 1.4.6 1.4 1.4s-.6 1.4-1.4 1.4c0 0-.8.2-1.9.3h-.1v.1c-.1 1.1-.3 1.9-.3 1.9 0 .8-.6 1.4-1.4 1.4s-1.4-.6-1.4-1.4c0 0-.2-.8-.3-1.9v-.1c-1.1-.2-2-.3-2-.3-.8 0-1.4-.6-1.4-1.4s.6-1.4 1.4-1.4c0 .1.8-.1 2-.3z" fill="#ff2e93"/></svg></g><!--ITEM: Illustration component 23--><g transform="translate(2662.5 1012.5) rotate(0.0 78.75 78.75)  scale(10.361842105263158 10.361842105263158)"><svg width="15.2" height="15.2" viewBox="0.0 0.0 15.2 15.2"><path d="m5.8 5.8c.2-2.5.4-4.4.4-4.4 0-.8.6-1.4 1.4-1.4s1.4.6 1.4 1.4c0 0 .3 2 .4 4.4.5 0 .9.1 1.3.1 1.8.1 3.1.3 3.1.3.8 0 1.4.6 1.4 1.4s-.6 1.4-1.4 1.4c0 0-1.3.2-3.1.3-.4 0-.8.1-1.3.1 0 .5-.1.9-.1 1.3-.1 1.8-.3 3.1-.3 3.1 0 .8-.6 1.4-1.4 1.4s-1.4-.6-1.4-1.4c0 0-.2-1.3-.3-3.1 0-.4-.1-.9-.1-1.3-2.4-.2-4.4-.4-4.4-.4-.8 0-1.4-.6-1.4-1.4s.6-1.4 1.4-1.4c0 0 1.9-.3 4.4-.4z" fill="#ff2e93"/></svg></g><!--ITEM: Illustration component 24--><g transform="translate(2580.0 371.25) rotate(0.0 20.625 20.625)  scale(5.892857142857143 5.892857142857143)"><svg width="7.0" height="7.0" viewBox="0.0 0.0 7.0 7.0"><path d="m1.9 1.9c.1-.3.2-.5.2-.5 0-.8.6-1.4 1.4-1.4s1.4.6 1.4 1.4c0 0 .1.2.2.5.3.1.5.2.5.2.8 0 1.4.6 1.4 1.4s-.6 1.4-1.4 1.4c0 0-.2.1-.5.2-.1.3-.2.5-.2.5 0 .8-.6 1.4-1.4 1.4s-1.4-.6-1.4-1.4c0 0-.1-.2-.2-.5-.3-.1-.5-.2-.5-.2-.8 0-1.4-.6-1.4-1.4s.6-1.4 1.4-1.4c0 0 .2-.1.5-.2z" fill="#ff2e93"/></svg></g><!--ITEM: Illustration component 25--><g transform="translate(2621.25 570.0) rotate(0.0 39.375 39.375)  scale(7.720588235294118 7.720588235294118)"><svg width="10.2" height="10.2" viewBox="0.0 0.0 10.2 10.2"><path d="m3.4 3.4c.2-1.1.3-2 .3-2 0-.8.6-1.4 1.4-1.4s1.4.6 1.4 1.4c0 0 .2.8.3 2h.1c1.1.1 1.9.3 1.9.3.8 0 1.4.6 1.4 1.4s-.6 1.4-1.4 1.4c0 0-.8.2-1.9.3h-.1v.1c-.1 1.1-.3 1.9-.3 1.9 0 .8-.6 1.4-1.4 1.4s-1.4-.6-1.4-1.4c0 0-.2-.8-.3-1.9v-.1c-1.1-.2-2-.3-2-.3-.8 0-1.4-.6-1.4-1.4s.6-1.4 1.4-1.4c0 .1.8-.1 2-.3z" fill="#ff2e93"/></svg></g><!--ITEM: Illustration component 26--><g transform="translate(1942.5 686.25) rotate(0.0 28.125 28.125)  scale(8.035714285714286 8.035714285714286)"><svg width="7.0" height="7.0" viewBox="0.0 0.0 7.0 7.0"><path d="m1.9 1.9c.1-.3.2-.5.2-.5 0-.8.6-1.4 1.4-1.4s1.4.6 1.4 1.4c0 0 .1.2.2.5.3.1.5.2.5.2.8 0 1.4.6 1.4 1.4s-.6 1.4-1.4 1.4c0 0-.2.1-.5.2-.1.3-.2.5-.2.5 0 .8-.6 1.4-1.4 1.4s-1.4-.6-1.4-1.4c0 0-.1-.2-.2-.5-.3-.1-.5-.2-.5-.2-.8 0-1.4-.6-1.4-1.4s.6-1.4 1.4-1.4c0 0 .2-.1.5-.2z" fill="#ff2e93"/></svg></g><!--ITEM: Illustration component 27--><g transform="translate(2396.25 465.0) rotate(0.0 52.5 52.5)  scale(6.907894736842105 6.907894736842105)"><svg width="15.2" height="15.2" viewBox="0.0 0.0 15.2 15.2"><path d="m5.8 5.8c.2-2.5.4-4.4.4-4.4 0-.8.6-1.4 1.4-1.4s1.4.6 1.4 1.4c0 0 .3 2 .4 4.4.5 0 .9.1 1.3.1 1.8.1 3.1.3 3.1.3.8 0 1.4.6 1.4 1.4s-.6 1.4-1.4 1.4c0 0-1.3.2-3.1.3-.4 0-.8.1-1.3.1 0 .5-.1.9-.1 1.3-.1 1.8-.3 3.1-.3 3.1 0 .8-.6 1.4-1.4 1.4s-1.4-.6-1.4-1.4c0 0-.2-1.3-.3-3.1 0-.4-.1-.9-.1-1.3-2.4-.2-4.4-.4-4.4-.4-.8 0-1.4-.6-1.4-1.4s.6-1.4 1.4-1.4c0 0 1.9-.3 4.4-.4z" fill="#ff2e93"/></svg></g><!--ITEM: Illustration component 28--><g transform="translate(1578.75 363.75) rotate(0.0 26.25 26.25)  scale(7.5 7.5)"><svg width="7.0" height="7.0" viewBox="0.0 0.0 7.0 7.0"><path d="m1.9 1.9c.1-.3.2-.5.2-.5 0-.8.6-1.4 1.4-1.4s1.4.6 1.4 1.4c0 0 .1.2.2.5.3.1.5.2.5.2.8 0 1.4.6 1.4 1.4s-.6 1.4-1.4 1.4c0 0-.2.1-.5.2-.1.3-.2.5-.2.5 0 .8-.6 1.4-1.4 1.4s-1.4-.6-1.4-1.4c0 0-.1-.2-.2-.5-.3-.1-.5-.2-.5-.2-.8 0-1.4-.6-1.4-1.4s.6-1.4 1.4-1.4c0 0 .2-.1.5-.2z" fill="#ff2e93"/></svg></g><!--ITEM: Illustration component 29--><g transform="translate(1368.75 401.25) rotate(0.0 52.5 52.5)  scale(6.907894736842105 6.907894736842105)"><svg width="15.2" height="15.2" viewBox="0.0 0.0 15.2 15.2"><path d="m5.8 5.8c.2-2.5.4-4.4.4-4.4 0-.8.6-1.4 1.4-1.4s1.4.6 1.4 1.4c0 0 .3 2 .4 4.4.5 0 .9.1 1.3.1 1.8.1 3.1.3 3.1.3.8 0 1.4.6 1.4 1.4s-.6 1.4-1.4 1.4c0 0-1.3.2-3.1.3-.4 0-.8.1-1.3.1 0 .5-.1.9-.1 1.3-.1 1.8-.3 3.1-.3 3.1 0 .8-.6 1.4-1.4 1.4s-1.4-.6-1.4-1.4c0 0-.2-1.3-.3-3.1 0-.4-.1-.9-.1-1.3-2.4-.2-4.4-.4-4.4-.4-.8 0-1.4-.6-1.4-1.4s.6-1.4 1.4-1.4c0 0 1.9-.3 4.4-.4z" fill="#ff2e93"/></svg></g><!--ITEM: Illustration component 30--><g transform="translate(1136.25 330.0) rotate(0.0 26.25 26.25)  scale(7.5 7.5)"><svg width="7.0" height="7.0" viewBox="0.0 0.0 7.0 7.0"><path d="m1.9 1.9c.1-.3.2-.5.2-.5 0-.8.6-1.4 1.4-1.4s1.4.6 1.4 1.4c0 0 .1.2.2.5.3.1.5.2.5.2.8 0 1.4.6 1.4 1.4s-.6 1.4-1.4 1.4c0 0-.2.1-.5.2-.1.3-.2.5-.2.5 0 .8-.6 1.4-1.4 1.4s-1.4-.6-1.4-1.4c0 0-.1-.2-.2-.5-.3-.1-.5-.2-.5-.2-.8 0-1.4-.6-1.4-1.4s.6-1.4 1.4-1.4c0 0 .2-.1.5-.2z" fill="#ff2e93"/></svg></g><!--ITEM: Illustration component 31--><g transform="translate(536.25 273.75) rotate(0.0 52.5 52.5)  scale(6.907894736842105 6.907894736842105)"><svg width="15.2" height="15.2" viewBox="0.0 0.0 15.2 15.2"><path d="m5.8 5.8c.2-2.5.4-4.4.4-4.4 0-.8.6-1.4 1.4-1.4s1.4.6 1.4 1.4c0 0 .3 2 .4 4.4.5 0 .9.1 1.3.1 1.8.1 3.1.3 3.1.3.8 0 1.4.6 1.4 1.4s-.6 1.4-1.4 1.4c0 0-1.3.2-3.1.3-.4 0-.8.1-1.3.1 0 .5-.1.9-.1 1.3-.1 1.8-.3 3.1-.3 3.1 0 .8-.6 1.4-1.4 1.4s-1.4-.6-1.4-1.4c0 0-.2-1.3-.3-3.1 0-.4-.1-.9-.1-1.3-2.4-.2-4.4-.4-4.4-.4-.8 0-1.4-.6-1.4-1.4s.6-1.4 1.4-1.4c0 0 1.9-.3 4.4-.4z" fill="#ff2e93"/></svg></g><!--ITEM: Illustration component 32--><g transform="translate(150.0 566.25) rotate(0.0 63.75 63.75)  scale(8.388157894736842 8.388157894736842)"><svg width="15.2" height="15.2" viewBox="0.0 0.0 15.2 15.2"><path d="m5.8 5.8c.2-2.5.4-4.4.4-4.4 0-.8.6-1.4 1.4-1.4s1.4.6 1.4 1.4c0 0 .3 2 .4 4.4.5 0 .9.1 1.3.1 1.8.1 3.1.3 3.1.3.8 0 1.4.6 1.4 1.4s-.6 1.4-1.4 1.4c0 0-1.3.2-3.1.3-.4 0-.8.1-1.3.1 0 .5-.1.9-.1 1.3-.1 1.8-.3 3.1-.3 3.1 0 .8-.6 1.4-1.4 1.4s-1.4-.6-1.4-1.4c0 0-.2-1.3-.3-3.1 0-.4-.1-.9-.1-1.3-2.4-.2-4.4-.4-4.4-.4-.8 0-1.4-.6-1.4-1.4s.6-1.4 1.4-1.4c0 0 1.9-.3 4.4-.4z" fill="#ff2e93"/></svg></g><!--ITEM: Illustration component 33--><g transform="translate(765.0 581.25) rotate(0.0 52.5 52.5)  scale(6.907894736842105 6.907894736842105)"><svg width="15.2" height="15.2" viewBox="0.0 0.0 15.2 15.2"><path d="m5.8 5.8c.2-2.5.4-4.4.4-4.4 0-.8.6-1.4 1.4-1.4s1.4.6 1.4 1.4c0 0 .3 2 .4 4.4.5 0 .9.1 1.3.1 1.8.1 3.1.3 3.1.3.8 0 1.4.6 1.4 1.4s-.6 1.4-1.4 1.4c0 0-1.3.2-3.1.3-.4 0-.8.1-1.3.1 0 .5-.1.9-.1 1.3-.1 1.8-.3 3.1-.3 3.1 0 .8-.6 1.4-1.4 1.4s-1.4-.6-1.4-1.4c0 0-.2-1.3-.3-3.1 0-.4-.1-.9-.1-1.3-2.4-.2-4.4-.4-4.4-.4-.8 0-1.4-.6-1.4-1.4s.6-1.4 1.4-1.4c0 0 1.9-.3 4.4-.4z" fill="#ff2e93"/></svg></g><!--ITEM: Illustration component 34--><g transform="translate(288.75 315.0) rotate(0.0 24.375 24.375)  scale(6.964285714285714 6.964285714285714)"><svg width="7.0" height="7.0" viewBox="0.0 0.0 7.0 7.0"><path d="m1.9 1.9c.1-.3.2-.5.2-.5 0-.8.6-1.4 1.4-1.4s1.4.6 1.4 1.4c0 0 .1.2.2.5.3.1.5.2.5.2.8 0 1.4.6 1.4 1.4s-.6 1.4-1.4 1.4c0 0-.2.1-.5.2-.1.3-.2.5-.2.5 0 .8-.6 1.4-1.4 1.4s-1.4-.6-1.4-1.4c0 0-.1-.2-.2-.5-.3-.1-.5-.2-.5-.2-.8 0-1.4-.6-1.4-1.4s.6-1.4 1.4-1.4c0 0 .2-.1.5-.2z" fill="#ff2e93"/></svg></g><!--ITEM: Illustration component 35--><g transform="translate(2201.25 1803.75) rotate(0.0 91.875 91.875)  scale(3.731949550135061 3.731873756042081)"><svg width="49.237" height="49.238" viewBox="0.0 0.0 49.237 49.238"><circle cx="24.619" cy="24.619" fill="#00e6b3" r="24.619"/></svg></g></svg>