<svg xmlns="http://www.w3.org/2000/svg" xmlns:xlink="http://www.w3.org/1999/xlink" width="375" viewBox="0 0 375 375" height="375" version="1.0"><defs><g id="b"><path d="M 46.3125 -40.734375 L 30.921875 -40.734375 L 30.921875 0 L 16.21875 0 L 16.21875 -40.734375 L 0.75 -40.734375 L 0.75 -53.5625 L 46.3125 -53.5625 Z M 46.3125 -40.734375"/></g><g id="c"><path d="M 23.15625 0.75 C 19.582031 0.75 16.453125 0.1875 13.765625 -0.9375 C 11.078125 -2.070312 8.8125 -3.582031 6.96875 -5.46875 C 5.132812 -7.351562 3.753906 -9.539062 2.828125 -12.03125 C 1.898438 -14.519531 1.4375 -17.125 1.4375 -19.84375 C 1.4375 -22.550781 1.898438 -25.148438 2.828125 -27.640625 C 3.753906 -30.128906 5.132812 -32.316406 6.96875 -34.203125 C 8.8125 -36.097656 11.078125 -37.609375 13.765625 -38.734375 C 16.453125 -39.867188 19.582031 -40.4375 23.15625 -40.4375 C 26.675781 -40.4375 29.796875 -39.867188 32.515625 -38.734375 C 35.234375 -37.609375 37.507812 -36.097656 39.34375 -34.203125 C 41.175781 -32.316406 42.554688 -30.128906 43.484375 -27.640625 C 44.421875 -25.148438 44.890625 -22.550781 44.890625 -19.84375 C 44.890625 -17.125 44.421875 -14.519531 43.484375 -12.03125 C 42.554688 -9.539062 41.175781 -7.351562 39.34375 -5.46875 C 37.507812 -3.582031 35.234375 -2.070312 32.515625 -0.9375 C 29.796875 0.1875 26.675781 0.75 23.15625 0.75 Z M 16.140625 -19.84375 C 16.140625 -17.175781 16.789062 -15.085938 18.09375 -13.578125 C 19.40625 -12.066406 21.09375 -11.3125 23.15625 -11.3125 C 25.21875 -11.3125 26.898438 -12.066406 28.203125 -13.578125 C 29.515625 -15.085938 30.171875 -17.175781 30.171875 -19.84375 C 30.171875 -22.507812 29.515625 -24.59375 28.203125 -26.09375 C 26.898438 -27.601562 25.21875 -28.359375 23.15625 -28.359375 C 21.09375 -28.359375 19.40625 -27.601562 18.09375 -26.09375 C 16.789062 -24.59375 16.140625 -22.507812 16.140625 -19.84375 Z M 16.140625 -19.84375"/></g><g id="d"><path d="M 20.21875 0.75 C 17.5 0.75 14.992188 0.25 12.703125 -0.75 C 10.421875 -1.757812 8.445312 -3.179688 6.78125 -5.015625 C 5.125 -6.847656 3.832031 -9.035156 2.90625 -11.578125 C 1.976562 -14.117188 1.515625 -16.898438 1.515625 -19.921875 C 1.515625 -22.835938 1.941406 -25.550781 2.796875 -28.0625 C 3.648438 -30.570312 4.84375 -32.742188 6.375 -34.578125 C 7.90625 -36.421875 9.726562 -37.859375 11.84375 -38.890625 C 13.957031 -39.921875 16.296875 -40.4375 18.859375 -40.4375 C 21.421875 -40.4375 23.769531 -39.859375 25.90625 -38.703125 C 28.050781 -37.546875 29.703125 -35.910156 30.859375 -33.796875 L 30.859375 -55.0625 L 45.1875 -55.0625 L 45.1875 -15.84375 C 45.1875 -14.488281 45.4375 -13.546875 45.9375 -13.015625 C 46.445312 -12.484375 47.351562 -12.164062 48.65625 -12.0625 L 48.65625 0 C 47.195312 0.25 45.914062 0.4375 44.8125 0.5625 C 43.707031 0.6875 42.726562 0.75 41.875 0.75 C 36.988281 0.75 34.171875 -1.082031 33.421875 -4.75 L 33.109375 -6.1875 C 31.753906 -3.769531 29.921875 -2.007812 27.609375 -0.90625 C 25.296875 0.195312 22.832031 0.75 20.21875 0.75 Z M 24.140625 -11.3125 C 26.753906 -11.3125 29.015625 -12.671875 30.921875 -15.390625 L 30.921875 -22.484375 C 30.222656 -24.242188 29.191406 -25.660156 27.828125 -26.734375 C 26.472656 -27.816406 25.039062 -28.359375 23.53125 -28.359375 C 22.476562 -28.359375 21.507812 -28.128906 20.625 -27.671875 C 19.75 -27.222656 18.992188 -26.597656 18.359375 -25.796875 C 17.734375 -24.992188 17.234375 -24.0625 16.859375 -23 C 16.484375 -21.945312 16.296875 -20.816406 16.296875 -19.609375 C 16.296875 -17.097656 17.007812 -15.085938 18.4375 -13.578125 C 19.875 -12.066406 21.773438 -11.3125 24.140625 -11.3125 Z M 24.140625 -11.3125"/></g><g id="e"><path d="M 4.609375 0 L 4.609375 -53.5625 L 19.3125 -53.5625 L 19.3125 0 Z M 4.609375 0"/></g><clipPath id="a"><path d="M 88.339844 139.285156 L 286.339844 139.285156 L 286.339844 236.035156 L 88.339844 236.035156 Z M 88.339844 139.285156"/></clipPath></defs><g clip-path="url(#a)"><path fill="#E63946" d="M 258.371094 139.285156 L 202.789062 139.285156 L 175 187.660156 L 159.558594 214.535156 L 128.683594 214.535156 L 113.242188 187.660156 L 128.683594 160.785156 L 159.558594 160.785156 L 169.851562 178.699219 L 182.203125 157.199219 L 171.910156 139.285156 L 116.332031 139.285156 L 88.539062 187.660156 L 116.332031 236.035156 L 171.910156 236.035156 L 199.703125 187.660156 L 215.140625 160.785156 L 246.019531 160.785156 L 261.457031 187.660156 L 246.019531 214.535156 L 215.140625 214.535156 L 204.847656 196.617188 L 192.496094 218.117188 L 202.789062 236.035156 L 258.371094 236.035156 L 286.160156 187.660156 L 258.371094 139.285156"/></g><g fill="#457B9D"><use x="92.309" y="120.423" xmlns:xlink="http://www.w3.org/1999/xlink" xlink:href="#b" xlink:type="simple" xlink:actuate="onLoad" xlink:show="embed"/></g><g fill="#457B9D"><use x="139.379" y="120.423" xmlns:xlink="http://www.w3.org/1999/xlink" xlink:href="#c" xlink:type="simple" xlink:actuate="onLoad" xlink:show="embed"/></g><g fill="#457B9D"><use x="185.695" y="120.423" xmlns:xlink="http://www.w3.org/1999/xlink" xlink:href="#d" xlink:type="simple" xlink:actuate="onLoad" xlink:show="embed"/></g><g fill="#457B9D"><use x="236.387" y="120.423" xmlns:xlink="http://www.w3.org/1999/xlink" xlink:href="#c" xlink:type="simple" xlink:actuate="onLoad" xlink:show="embed"/></g><g fill="#457B9D"><use x="152.004" y="307.382" xmlns:xlink="http://www.w3.org/1999/xlink" xlink:href="#e" xlink:type="simple" xlink:actuate="onLoad" xlink:show="embed"/></g><g fill="#457B9D"><use x="175.916" y="307.382" xmlns:xlink="http://www.w3.org/1999/xlink" xlink:href="#b" xlink:type="simple" xlink:actuate="onLoad" xlink:show="embed"/></g></svg>