<?xml version="1.0" encoding="utf-8"?>
<svg width="65px" height="65px" viewBox="0 0 65 65" version="1.1" xmlns:xlink="http://www.w3.org/1999/xlink" xmlns="http://www.w3.org/2000/svg">
  <defs>
    <linearGradient x1="7.484108E-06" y1="0.5" x2="1" y2="0.5" id="gradient_1">
      <stop offset="0" stop-color="#2AA4F4" />
      <stop offset="1" stop-color="#007AD9" />
    </linearGradient>
    <path d="M0 0L65 0L65 65L0 65L0 0Z" id="path_1" />
    <path d="M0 0L23 0L23 23L0 23L0 0Z" id="path_2" />
    <rect width="65" height="65" id="artboard_1" />
    <clipPath id="clip_1">
      <use xlink:href="#artboard_1" clip-rule="evenodd" />
    </clipPath>
    <clipPath id="mask_1">
      <use xlink:href="#path_1" />
    </clipPath>
    <clipPath id="mask_2">
      <use xlink:href="#path_2" />
    </clipPath>
  </defs>
  <g id="Iconos" clip-path="url(#clip_1)">
    <g id="Scooter-icon">
      <path d="M0 0L65 0L65 65L0 65L0 0Z" id="Background" fill="none" fill-rule="evenodd" stroke="none" />
      <g clip-path="url(#mask_1)">
        <path d="M59.5833 48.75C59.5833 53.2364 55.9447 56.875 51.4583 56.875C46.972 56.875 43.3333 53.2364 43.3333 48.75C43.3333 44.2636 46.972 40.625 51.4583 40.625C55.9447 40.625 59.5833 44.2636 59.5833 48.75" id="Shape" fill="#586169" fill-rule="evenodd" stroke="none" />
        <path d="M55.5208 48.75C55.5208 50.9939 53.7035 52.8125 51.4583 52.8125C49.2131 52.8125 47.3958 50.9952 47.3958 48.75C47.3958 46.5048 49.2131 44.6875 51.4583 44.6875C53.7035 44.6875 55.5208 46.5048 55.5208 48.75" id="Shape" fill="#999999" fill-rule="evenodd" stroke="none" />
        <path d="M52.1381 36.5625C46.5278 36.5625 41.9792 41.4131 41.9792 47.3958L60.9036 47.3958C61.685 47.3958 62.3038 46.6565 62.1928 45.8304C61.4819 40.5898 57.2515 36.5625 52.1381 36.5625L52.1381 36.5625Z" id="Shape" fill="#35C1F1" fill-rule="evenodd" stroke="none" />
        <path d="M24.375 48.75C24.375 53.2364 20.7364 56.875 16.25 56.875C11.7636 56.875 8.125 53.2364 8.125 48.75C8.125 44.2636 11.7636 40.625 16.25 40.625C20.7364 40.625 24.375 44.2636 24.375 48.75" id="Shape" fill="#586169" fill-rule="evenodd" stroke="none" />
        <path d="M20.3125 48.75C20.3125 50.9939 18.4952 52.8125 16.25 52.8125C14.0048 52.8125 12.1875 50.9952 12.1875 48.75C12.1875 46.5048 14.0048 44.6875 16.25 44.6875C18.4952 44.6875 20.3125 46.5048 20.3125 48.75" id="Shape" fill="#999999" fill-rule="evenodd" stroke="none" />
        <path d="M25.7292 29.7917L12.1875 29.7917C10.6911 29.7917 9.47917 28.5797 9.47917 27.0833L9.47917 27.0833C9.47917 25.587 10.6911 24.375 12.1875 24.375L25.7292 24.375C27.2255 24.375 28.4375 25.587 28.4375 27.0833L28.4375 27.0833C28.4375 28.5797 27.2255 29.7917 25.7292 29.7917L25.7292 29.7917Z" id="Shape" fill="#B34A16" fill-rule="evenodd" stroke="none" />
        <path d="M45.3646 16.25L49.7846 16.25C50.7095 16.25 51.4583 15.5011 51.4583 14.5763L51.4583 8.44458C51.4583 7.51969 50.7095 6.77083 49.7846 6.77083L45.3646 6.77083C42.747 6.77083 40.625 8.89281 40.625 11.5104L40.625 11.5104C40.625 14.128 42.747 16.25 45.3646 16.25L45.3646 16.25Z" id="Shape" fill="#35C1F1" fill-rule="evenodd" stroke="none" />
        <path d="M46.0417 16.25L43.3333 16.25L37.9167 16.25L37.9167 18.9583L42.8621 18.9583L38.6235 43.3333L29.5831 43.3333L24.375 29.7917L12.1875 29.7917C7.34229 32.2143 3.58177 37.8869 2.84104 44.8703C2.6975 46.2258 3.8025 47.3958 5.16615 47.3958L23.0208 47.3958L31.1458 47.3958L37.9167 47.3958L40.625 47.3958L43.3333 47.3958L54.1667 36.5625C53.671 29.8973 50.1042 20.3125 46.0417 16.25L46.0417 16.25Z" id="Shape" fill="url(#gradient_1)" fill-rule="evenodd" stroke="none" />
        <path d="M33.8542 18.9583L37.9167 18.9583L37.9167 16.25L33.8542 16.25C33.1067 16.25 32.5 16.8567 32.5 17.6042L32.5 17.6042C32.5 18.3517 33.1067 18.9583 33.8542 18.9583L33.8542 18.9583Z" id="Shape" fill="#565B5E" fill-rule="evenodd" stroke="none" />
      </g>
    </g>
    <g id="Do-Not-Stack-icon" transform="translate(6 0.79999924)">
      <path d="M0 0L23 0L23 23L0 23L0 0Z" id="Background" fill="none" fill-rule="evenodd" stroke="none" />
      <g clip-path="url(#mask_2)">
        <path d="M20.125 11.5L2.875 11.5L2.875 3.83333C2.875 3.30385 3.30385 2.875 3.83333 2.875L19.1667 2.875C19.6961 2.875 20.125 3.30385 20.125 3.83333L20.125 11.5L20.125 11.5Z" id="Shape" fill="#E3A600" fill-rule="evenodd" stroke="none" />
        <path d="M19.1667 20.125L3.83333 20.125C3.30385 20.125 2.875 19.6961 2.875 19.1667L2.875 11.5L20.125 11.5L20.125 19.1667C20.125 19.6961 19.6961 20.125 19.1667 20.125L19.1667 20.125Z" id="Shape" fill="#C48C00" fill-rule="evenodd" stroke="none" />
        <path d="M10.3021 12.9375L12.6979 12.9375C12.9624 12.9375 13.1771 13.1522 13.1771 13.4167L13.1771 13.4167C13.1771 13.6812 12.9624 13.8958 12.6979 13.8958L10.3021 13.8958C10.0376 13.8958 9.82292 13.6812 9.82292 13.4167L9.82292 13.4167C9.82292 13.1522 10.0376 12.9375 10.3021 12.9375L10.3021 12.9375Z" id="Shape" fill="#633412" fill-rule="evenodd" stroke="none" />
        <path d="M10.3021 4.3125L12.6979 4.3125C12.9624 4.3125 13.1771 4.52717 13.1771 4.79167L13.1771 4.79167C13.1771 5.05617 12.9624 5.27083 12.6979 5.27083L10.3021 5.27083C10.0376 5.27083 9.82292 5.05617 9.82292 4.79167L9.82292 4.79167C9.82292 4.52717 10.0376 4.3125 10.3021 4.3125L10.3021 4.3125Z" id="Shape" fill="#633412" fill-rule="evenodd" stroke="none" />
        <path d="M21.5088 20.4767L2.52329 1.49117C2.45189 1.41977 2.33642 1.41977 2.26502 1.49117L1.49117 2.2655C1.41977 2.33689 1.41977 2.45237 1.49117 2.52377L20.4767 21.5093C20.5481 21.5807 20.6636 21.5807 20.735 21.5093L21.5093 20.735C21.5802 20.6636 21.5802 20.5476 21.5088 20.4767L21.5088 20.4767Z" id="Shape" fill="#E52030" fill-rule="evenodd" stroke="none" />
      </g>
    </g>
  </g>
</svg>