<?xml version="1.0" encoding="utf-8"?>
<svg width="65px" height="65px" viewBox="0 0 65 65" version="1.1" xmlns:xlink="http://www.w3.org/1999/xlink" xmlns="http://www.w3.org/2000/svg">
  <defs>
    <linearGradient x1="0.25894445" y1="-0.12751517" x2="0.70630556" y2="1.0370303" id="gradient_1">
      <stop offset="0" stop-color="#EBA84B" />
      <stop offset="1" stop-color="#D97218" />
    </linearGradient>
    <linearGradient x1="7.484108E-06" y1="0.5" x2="1" y2="0.5" id="gradient_2">
      <stop offset="0" stop-color="#2AA4F4" />
      <stop offset="1" stop-color="#007AD9" />
    </linearGradient>
    <path d="M0 0L26 0L26 26L0 26L0 0Z" id="path_1" />
    <path d="M0 0L65 0L65 65L0 65L0 0Z" id="path_2" />
    <rect width="65" height="65" id="artboard_1" />
    <clipPath id="clip_1">
      <use xlink:href="#artboard_1" clip-rule="evenodd" />
    </clipPath>
    <clipPath id="mask_1">
      <use xlink:href="#path_1" />
    </clipPath>
    <clipPath id="mask_2">
      <use xlink:href="#path_2" />
    </clipPath>
  </defs>
  <g id="Iconos" clip-path="url(#clip_1)">
    <g id="Open-Box-icon" transform="translate(5 1)">
      <path d="M0 0L26 0L26 26L0 26L0 0Z" id="Background" fill="none" fill-rule="evenodd" stroke="none" />
      <g clip-path="url(#mask_1)">
        <path d="M21.1245 7.31846L16.9114 3.10538C16.3925 2.58646 15.554 2.57508 15.021 3.07992L10.8328 7.04762L10.8328 8.86221L20.3526 8.86221C20.7789 8.86221 21.1245 8.51662 21.1245 8.09033L21.1245 7.31846L21.1245 7.31846Z" id="Shape" fill="#35C1F1" fill-rule="evenodd" stroke="none" />
        <path d="M18.4167 8.37633L12.1393 2.09896C11.5191 1.47875 10.5186 1.46575 9.88217 2.06863L6.5 5.27258L6.5 7.01946C6.5 7.76912 7.10775 8.37687 7.85742 8.37687L18.4167 8.37687L18.4167 8.37633Z" id="Shape" fill="#50E6FF" fill-rule="evenodd" stroke="none" />
        <path d="M22.2083 22.75L3.79167 22.75C3.49375 22.75 3.25 22.5063 3.25 22.2083L3.25 5.41667C3.25 5.11767 3.49267 4.875 3.79167 4.875L22.2083 4.875C22.5073 4.875 22.75 5.11767 22.75 5.41667L22.75 22.2083C22.75 22.5063 22.5063 22.75 22.2083 22.75L22.2083 22.75Z" id="Shape" fill="url(#gradient_1)" fill-rule="evenodd" stroke="none" />
        <path d="M15.1667 20.0417L20.5833 20.0417L20.5833 21.125L15.1667 21.125L15.1667 20.0417Z" id="Rectangle" fill="#633412" fill-rule="evenodd" stroke="none" />
        <path d="M10.8333 7.04167L15.1667 7.04167C15.4657 7.04167 15.7083 7.28433 15.7083 7.58333L15.7083 7.58333C15.7083 7.88233 15.4657 8.125 15.1667 8.125L10.8333 8.125C10.5343 8.125 10.2917 7.88233 10.2917 7.58333L10.2917 7.58333C10.2917 7.28433 10.5343 7.04167 10.8333 7.04167L10.8333 7.04167Z" id="Shape" fill="#633412" fill-rule="evenodd" stroke="none" />
        <path d="M20.5833 17.3333L19.5 16.25L18.4167 17.3333L18.9583 17.3333L18.9583 18.9583L20.0417 18.9583L20.0417 17.3333L20.5833 17.3333Z" id="Polygon" fill="#633412" fill-rule="evenodd" stroke="none" />
        <path d="M17.3333 17.3333L16.25 16.25L15.1667 17.3333L15.7083 17.3333L15.7083 18.9583L16.7917 18.9583L16.7917 17.3333L17.3333 17.3333Z" id="Polygon" fill="#633412" fill-rule="evenodd" stroke="none" />
      </g>
    </g>
    <g id="Scooter-icon">
      <path d="M0 0L65 0L65 65L0 65L0 0Z" id="Background" fill="none" fill-rule="evenodd" stroke="none" />
      <g clip-path="url(#mask_2)">
        <path d="M59.5833 48.75C59.5833 53.2364 55.9447 56.875 51.4583 56.875C46.972 56.875 43.3333 53.2364 43.3333 48.75C43.3333 44.2636 46.972 40.625 51.4583 40.625C55.9447 40.625 59.5833 44.2636 59.5833 48.75" id="Shape" fill="#586169" fill-rule="evenodd" stroke="none" />
        <path d="M55.5208 48.75C55.5208 50.9939 53.7035 52.8125 51.4583 52.8125C49.2131 52.8125 47.3958 50.9952 47.3958 48.75C47.3958 46.5048 49.2131 44.6875 51.4583 44.6875C53.7035 44.6875 55.5208 46.5048 55.5208 48.75" id="Shape" fill="#999999" fill-rule="evenodd" stroke="none" />
        <path d="M52.1381 36.5625C46.5278 36.5625 41.9792 41.4131 41.9792 47.3958L60.9036 47.3958C61.685 47.3958 62.3038 46.6565 62.1928 45.8304C61.4819 40.5898 57.2515 36.5625 52.1381 36.5625L52.1381 36.5625Z" id="Shape" fill="#35C1F1" fill-rule="evenodd" stroke="none" />
        <path d="M24.375 48.75C24.375 53.2364 20.7364 56.875 16.25 56.875C11.7636 56.875 8.125 53.2364 8.125 48.75C8.125 44.2636 11.7636 40.625 16.25 40.625C20.7364 40.625 24.375 44.2636 24.375 48.75" id="Shape" fill="#586169" fill-rule="evenodd" stroke="none" />
        <path d="M20.3125 48.75C20.3125 50.9939 18.4952 52.8125 16.25 52.8125C14.0048 52.8125 12.1875 50.9952 12.1875 48.75C12.1875 46.5048 14.0048 44.6875 16.25 44.6875C18.4952 44.6875 20.3125 46.5048 20.3125 48.75" id="Shape" fill="#999999" fill-rule="evenodd" stroke="none" />
        <path d="M25.7292 29.7917L12.1875 29.7917C10.6911 29.7917 9.47917 28.5797 9.47917 27.0833L9.47917 27.0833C9.47917 25.587 10.6911 24.375 12.1875 24.375L25.7292 24.375C27.2255 24.375 28.4375 25.587 28.4375 27.0833L28.4375 27.0833C28.4375 28.5797 27.2255 29.7917 25.7292 29.7917L25.7292 29.7917Z" id="Shape" fill="#B34A16" fill-rule="evenodd" stroke="none" />
        <path d="M45.3646 16.25L49.7846 16.25C50.7095 16.25 51.4583 15.5011 51.4583 14.5763L51.4583 8.44458C51.4583 7.51969 50.7095 6.77083 49.7846 6.77083L45.3646 6.77083C42.747 6.77083 40.625 8.89281 40.625 11.5104L40.625 11.5104C40.625 14.128 42.747 16.25 45.3646 16.25L45.3646 16.25Z" id="Shape" fill="#35C1F1" fill-rule="evenodd" stroke="none" />
        <path d="M46.0417 16.25L43.3333 16.25L37.9167 16.25L37.9167 18.9583L42.8621 18.9583L38.6235 43.3333L29.5831 43.3333L24.375 29.7917L12.1875 29.7917C7.34229 32.2143 3.58177 37.8869 2.84104 44.8703C2.6975 46.2258 3.8025 47.3958 5.16614 47.3958L23.0208 47.3958L31.1458 47.3958L37.9167 47.3958L40.625 47.3958L43.3333 47.3958L54.1667 36.5625C53.671 29.8973 50.1042 20.3125 46.0417 16.25L46.0417 16.25Z" id="Shape" fill="url(#gradient_2)" fill-rule="evenodd" stroke="none" />
        <path d="M33.8542 18.9583L37.9167 18.9583L37.9167 16.25L33.8542 16.25C33.1067 16.25 32.5 16.8567 32.5 17.6042L32.5 17.6042C32.5 18.3517 33.1067 18.9583 33.8542 18.9583L33.8542 18.9583Z" id="Shape" fill="#565B5E" fill-rule="evenodd" stroke="none" />
      </g>
    </g>
  </g>
</svg>