<svg xmlns="http://www.w3.org/2000/svg"  viewBox="0 0 64 64" width="64px" height="64px"><linearGradient id="KxuRN7auBVjWaWaS6jsbia" x1="19" x2="19" y1="56.223" y2="11.477" gradientTransform="rotate(180 18 31.945)" gradientUnits="userSpaceOnUse"><stop offset="0" stop-color="#1a6dff"/><stop offset="1" stop-color="#c822ff"/></linearGradient><path fill="url(#KxuRN7auBVjWaWaS6jsbia)" d="M24,18H10v-2h14V18z"/><linearGradient id="KxuRN7auBVjWaWaS6jsbib" x1="13" x2="13" y1="56.223" y2="11.477" gradientTransform="rotate(180 18 31.945)" gradientUnits="userSpaceOnUse"><stop offset="0" stop-color="#1a6dff"/><stop offset="1" stop-color="#c822ff"/></linearGradient><path fill="url(#KxuRN7auBVjWaWaS6jsbib)" d="M30,14H16v-2h14V14z"/><linearGradient id="KxuRN7auBVjWaWaS6jsbic" x1="18.5" x2="18.5" y1="43.41" y2="46.759" gradientUnits="userSpaceOnUse"><stop offset="0" stop-color="#6dc7ff"/><stop offset="1" stop-color="#e6abff"/></linearGradient><circle cx="18.5" cy="45.5" r="2.5" fill="url(#KxuRN7auBVjWaWaS6jsbic)"/><linearGradient id="KxuRN7auBVjWaWaS6jsbid" x1="46.5" x2="46.5" y1="43.41" y2="46.759" gradientUnits="userSpaceOnUse"><stop offset="0" stop-color="#6dc7ff"/><stop offset="1" stop-color="#e6abff"/></linearGradient><circle cx="46.5" cy="45.5" r="2.5" fill="url(#KxuRN7auBVjWaWaS6jsbid)"/><linearGradient id="KxuRN7auBVjWaWaS6jsbie" x1="18.5" x2="18.5" y1="34.492" y2="39.909" gradientUnits="userSpaceOnUse"><stop offset="0" stop-color="#6dc7ff"/><stop offset="1" stop-color="#e6abff"/></linearGradient><path fill="url(#KxuRN7auBVjWaWaS6jsbie)" d="M18.5,34c-3.628,0-6.654,2.577-7.349,6h14.699C25.154,36.577,22.128,34,18.5,34z"/><linearGradient id="KxuRN7auBVjWaWaS6jsbif" x1="31.5" x2="31.5" y1="14" y2="52" gradientUnits="userSpaceOnUse"><stop offset="0" stop-color="#1a6dff"/><stop offset="1" stop-color="#c822ff"/></linearGradient><path fill="url(#KxuRN7auBVjWaWaS6jsbif)" d="M53,45.5c0-0.517-0.068-1.018-0.183-1.5h3.109l0.058-1.076C55.992,42.801,56,42.678,56,42.553	c0-4.441-3.066-8.168-7.191-9.203L43.516,23H47v-9h-6.5c-2.481,0-4.5,2.019-4.5,4.5c0,0.925,0.282,1.784,0.762,2.5H32v2h7v10.586	L34.586,38h-4.937l-3.112-7.004C28.449,30.976,30,29.417,30,27.5c0-1.93-1.57-3.5-3.5-3.5H16.477C14.008,24,12,26.008,12,28.477	v2.113C8.16,33.425,7,39.401,7,43v1h5.183C12.068,44.482,12,44.983,12,45.5c0,1.746,0.696,3.331,1.821,4.5H7v2h49v-2h-4.821	C52.304,48.831,53,47.247,53,45.5z M24.817,44h12.905h0.662h1.799C40.068,44.482,40,44.983,40,45.5c0,1.746,0.696,3.331,1.821,4.5	H23.179C24.304,48.831,25,47.247,25,45.5C25,44.983,24.932,44.482,24.817,44z M42,45.5c0-0.528,0.1-1.03,0.268-1.5h8.464	C50.9,44.471,51,44.973,51,45.5c0,2.481-2.019,4.5-4.5,4.5S42,47.982,42,45.5z M52.426,38H49v2h4.529	c0.231,0.634,0.399,1.299,0.45,2H40.606l7.516-6.764C49.867,35.623,51.369,36.631,52.426,38z M38,18.5c0-1.378,1.121-2.5,2.5-2.5H45	v5h-2h-0.341H40.5C39.121,21,38,19.879,38,18.5z M14,28.477C14,27.111,15.111,26,16.477,26H26.5c0.827,0,1.5,0.673,1.5,1.5	S27.327,29,26.5,29h-1.467H17h-3V28.477z M9.049,42C9.267,39.117,10.463,31,17,31h7.351l4,9h7.063L41,34.414V23h0.341l5.458,10.735	L37.616,42H9.049z M14,45.5c0-0.528,0.1-1.03,0.268-1.5h8.464C22.9,44.471,23,44.973,23,45.5c0,2.481-2.019,4.5-4.5,4.5	S14,47.982,14,45.5z"/></svg>