<svg xmlns="http://www.w3.org/2000/svg"  viewBox="0 0 64 64" width="64px" height="64px"><linearGradient id="O2h0Tc69u6hugpyM1Y_CFa" x1="32" x2="32" y1="24.75" y2="38.502" gradientUnits="userSpaceOnUse" spreadMethod="reflect"><stop offset="0" stop-color="#6dc7ff"/><stop offset="1" stop-color="#e6abff"/></linearGradient><path fill="url(#O2h0Tc69u6hugpyM1Y_CFa)" d="M32 28A4 4 0 1 0 32 36A4 4 0 1 0 32 28Z"/><linearGradient id="O2h0Tc69u6hugpyM1Y_CFb" x1="32" x2="32" y1="4.5" y2="60.09" gradientUnits="userSpaceOnUse" spreadMethod="reflect"><stop offset="0" stop-color="#1a6dff"/><stop offset="1" stop-color="#c822ff"/></linearGradient><path fill="url(#O2h0Tc69u6hugpyM1Y_CFb)" d="M32,7c-5.27,0-10.26,1.622-14.511,4.666l-3.044-3.044c-0.524-0.523-1.268-0.736-1.989-0.564 c-0.721,0.17-1.292,0.691-1.526,1.395L8.17,17.729c-0.391,1.172-0.091,2.442,0.782,3.316c0.621,0.621,1.441,0.952,2.285,0.952 c0.344,0,0.692-0.056,1.033-0.169l8.277-2.758c0.703-0.234,1.225-0.806,1.395-1.526c0.17-0.722-0.041-1.466-0.565-1.989 l-2.456-2.457C22.773,10.424,27.264,9,32,9c12.682,0,23,10.317,23,23S44.682,55,32,55S9,44.683,9,32H7c0,13.785,11.215,25,25,25 s25-11.215,25-25S45.785,7,32,7z M19.996,17.085c-0.016,0.066-0.063,0.082-0.081,0.089l-8.277,2.759 c-0.458,0.15-0.931,0.04-1.271-0.301c-0.339-0.339-0.451-0.814-0.299-1.27l2.759-8.277c0.005-0.017,0.021-0.065,0.089-0.081 C12.927,10.001,12.938,10,12.948,10c0.047,0,0.073,0.026,0.083,0.036l6.933,6.934C19.976,16.982,20.012,17.019,19.996,17.085z"/><linearGradient id="O2h0Tc69u6hugpyM1Y_CFc" x1="29.146" x2="29.146" y1="4.5" y2="60.09" gradientUnits="userSpaceOnUse" spreadMethod="reflect"><stop offset="0" stop-color="#1a6dff"/><stop offset="1" stop-color="#c822ff"/></linearGradient><path fill="url(#O2h0Tc69u6hugpyM1Y_CFc)" d="M22.707,42.707l6.54-6.54C30.038,36.691,30.983,37,32,37c2.757,0,5-2.243,5-5 c0-2.415-1.721-4.434-4-4.899V19h-2v8.101c-2.279,0.465-4,2.484-4,4.899c0,1.018,0.309,1.962,0.833,2.753l-6.54,6.54L22.707,42.707z M32,29c1.654,0,3,1.346,3,3s-1.346,3-3,3s-3-1.346-3-3S30.346,29,32,29z"/><linearGradient id="O2h0Tc69u6hugpyM1Y_CFd" x1="42.5" x2="42.5" y1="4.5" y2="60.09" gradientUnits="userSpaceOnUse" spreadMethod="reflect"><stop offset="0" stop-color="#1a6dff"/><stop offset="1" stop-color="#c822ff"/></linearGradient><path fill="url(#O2h0Tc69u6hugpyM1Y_CFd)" d="M32,53c11.58,0,21-9.421,21-21h-2c0,10.477-8.523,19-19,19V53z"/></svg>